<svg id="Layer_1" data-name="Layer 1" xmlns="http://www.w3.org/2000/svg" viewBox="0 0 64.59 36.89"><title>ally</title><path d="M24.43,0h6.48V28.88H24.43Z" fill="#fff"/><path d="M34,0h6.48V28.88H34Z" fill="#fff"/><path d="M64.59,8,53.74,36.89H46.87l3.43-8.31L42.27,8h6.91l4.33,12.57h.08L57.72,8Z" fill="#fff"/><path d="M21.48,18.55A10.41,10.41,0,0,0,10.74,7.95,10.41,10.41,0,0,0,0,18.55,10.39,10.39,0,0,0,9.72,29.1l5.55-6H10.85a4.55,4.55,0,1,1,0-9.1,4.56,4.56,0,0,1,4.67,4.55v10.2h6Z" fill="#fff"/></svg>