<svg id="Layer_1" data-name="Layer 1" xmlns="http://www.w3.org/2000/svg" viewBox="0 0 93.85 27.83"><title>crayola</title><path d="M21.13,13.64a2.48,2.48,0,0,1,.63-1.78,2.57,2.57,0,0,1,1.78-.59,3.53,3.53,0,0,1,.78.15,8,8,0,0,1,.93.37v-6a.34.34,0,0,1-.19,0H24.8a4.09,4.09,0,0,0-2.11.56,5.38,5.38,0,0,0-1.74,1.59V6.19H15.12V18.53h6Z" fill="#fff"/><path d="M9.34,19a9.49,9.49,0,0,0,2-.19,11.09,11.09,0,0,0,2.08-.63l.19-6.56a9.24,9.24,0,0,1-2,1.19,4.93,4.93,0,0,1-1.85.41,3.3,3.3,0,0,1-2.41-.93,3.31,3.31,0,0,1-.89-2.45A3.42,3.42,0,0,1,7.38,7.3a3.35,3.35,0,0,1,2.48-1,4.68,4.68,0,0,1,1.89.41A7.52,7.52,0,0,1,13.53,8V1.52a10.08,10.08,0,0,0-2-.67A9.65,9.65,0,0,0,9.41.63a10.33,10.33,0,0,0-3.74.67,8,8,0,0,0-3,1.93,9.31,9.31,0,0,0-2,3A9.74,9.74,0,0,0,0,9.82a9.11,9.11,0,0,0,1.19,4.67A9.45,9.45,0,0,0,4.71,17.9a9.24,9.24,0,0,0,2.15.82A10.65,10.65,0,0,0,9.34,19Z" fill="#fff"/><path d="M56.11,12.38a7.43,7.43,0,0,0,.19,1.56c.11.37.26.74.41,1.11a6.27,6.27,0,0,0,1.71,2.22,6.53,6.53,0,0,0,2.26,1.3,7.74,7.74,0,0,0,2.67.41A8,8,0,0,0,66,18.57a6.62,6.62,0,0,0,2.22-1.3A6.16,6.16,0,0,0,70,15a6.3,6.3,0,0,0,0-5.34,6,6,0,0,0-1.67-2.19A6.54,6.54,0,0,0,66,6.23a8,8,0,0,0-2.71-.45,7.75,7.75,0,0,0-2.67.45,6.54,6.54,0,0,0-2.26,1.3,6.15,6.15,0,0,0-1.71,2.19,10.46,10.46,0,0,0-.41,1.15A6.55,6.55,0,0,0,56.11,12.38Zm6.15-1.19a1.46,1.46,0,0,1,1.07-.48,1.4,1.4,0,0,1,1.08.48,1.7,1.7,0,0,1,.41,1.19,2,2,0,0,1-.41,1.22,1.44,1.44,0,0,1-2.15,0,1.79,1.79,0,0,1-.37-1.22A1.69,1.69,0,0,1,62.27,11.19Z" fill="#fff"/><path d="M88.1,7.82a5.42,5.42,0,0,0-1.52-1.41l-.22-.11a4.46,4.46,0,0,0-5.71,1.33,7.82,7.82,0,0,0-1.37,4.82,7.56,7.56,0,0,0,1.41,4.71A4.38,4.38,0,0,0,84.28,19a3.88,3.88,0,0,0,2.15-.56.28.28,0,0,0,.15-.07,6.64,6.64,0,0,0,1.74-1.67v1.85h5.52V6.19H88.1Zm-.41,5.78a1.42,1.42,0,0,1-1.11.48,1.39,1.39,0,0,1-1.11-.52A1.74,1.74,0,0,1,85,12.31,1.81,1.81,0,0,1,85.47,11a1.36,1.36,0,0,1,1.11-.48,1.31,1.31,0,0,1,1.11.48,1.69,1.69,0,0,1,.44,1.26A1.9,1.9,0,0,1,87.69,13.6Z" fill="#fff"/><path d="M56.52,6.19H50.33l-.93,3.08c-.07.26-.19.7-.33,1.26s-.33,1.3-.52,2.26a31.3,31.3,0,0,0-.78-3.3.28.28,0,0,1,0-.15l-.93-3.15H40.33v.15l5.26,11.12-3,6.12H49L56.3,6.63Z" fill="#fff"/><path d="M40.25,6.19H34.54V7.82A5.42,5.42,0,0,0,33,6.41L32.8,6.3a4.41,4.41,0,0,0-5.67,1.33,7.83,7.83,0,0,0-1.41,4.82,7.35,7.35,0,0,0,1.45,4.71A4.26,4.26,0,0,0,30.73,19a3.88,3.88,0,0,0,2.15-.56.19.19,0,0,0,.15-.07,6.12,6.12,0,0,0,1.74-1.67v1.85h5.56V6.34l0-.08ZM34.17,13.6a1.56,1.56,0,0,1-1.15.48,1.44,1.44,0,0,1-1.11-.52,1.9,1.9,0,0,1-.41-1.26A2,2,0,0,1,31.91,11,1.41,1.41,0,0,1,33,10.56a1.31,1.31,0,0,1,1.11.48,1.69,1.69,0,0,1,.44,1.26A2.08,2.08,0,0,1,34.17,13.6Z" fill="#fff"/><rect x="71.9" width="6" height="18.53" fill="#fff"/><path d="M50.37,22.52c16.4.31,25.76,3.3,25.79,3.27l1.37-3.15A93.74,93.74,0,0,0,51.89,19Z" fill="#fff"/><path d="M37.43,19.61A122.17,122.17,0,0,0,5.82,26.83v1h.3a173.35,173.35,0,0,1,32.65-5.08c1.13-.07,2.23-.11,3.31-.15l1.68-3.43C41.6,19.27,39.48,19.42,37.43,19.61Z" fill="#fff"/></svg>