<svg xmlns="http://www.w3.org/2000/svg" viewBox="0 0 20.1 23"><path d="M10.2 23C4.8 23 0 18.8 0 13.1s4.5-8.4 5.3-8.8c1-.5 1.7-.8 2.8-1.7.5-.4 1-1.1 1.2-2.6.7 1 1.7 2.1 2.4 2.5 1.1.7 2.2 1 3.4 1.8.7.4 5.1 3.1 5.1 9-.1 5.8-4.7 9.7-10 9.7zm7.8-9.5c-1 0-3.2 2.2-4.3 2.2-1.3 0-3.1-2.6-5.7-2.5-2 0-3.7 1.6-3.7 3.4 0 1 .3 1.7 1 2.1.4.3.9.5 2.2.5 2.2 0 5-2.7 6.3-2.7 1 0 2.6 2.5 3.4 2.6.6.1 1-.2 1.5-1s.7-2 .7-2.7c0-.7-.3-1.9-1.4-1.9zm-3 7c-.4.3-1.4.7-2.9.7-1.4 0-2.1-.3-2.5-.6-.1-.1 0-.1-.2-.1-.1 0-.2.1-.3.2-.1.1-.2.3 0 .5 1 .9 2.6.8 3.8.7 1.2-.1 2.2-.8 2.3-.9.2-.2.1-.3.1-.4 0-.2-.1-.3-.3-.1zm-.7-2.3c-.3-.2-.6-.2-1-.2s-.6 0-.9.1c-.4.2-.8.5-1 .7-.2.2-.3.4-.2.6.1.2.3.1.6-.2.4-.3.6-.6 1.4-.6.8 0 .9.3 1.1.6.2.3.2.3.3.2.2-.1.3-.2.2-.4-.1-.2-.3-.6-.5-.8z"/></svg>