<svg data-name="Layer 1" xmlns="http://www.w3.org/2000/svg" viewBox="0 0 169.74 169.72"><title>Untitled-2</title><path fill="#52c393" d="M23.55 128.97L.04 105.46 0 152.52l23.55-23.55"/><path fill="#52c393" d="M105.4.1L.04 105.46l23.51 23.51L128.91 23.61 152.52 0 105.4.1"/><path d="M26.94 110.71l-6.12-6.12a2.17 2.17 0 0 1-.77-1.92 3.17 3.17 0 0 1 .93-1.75q2.75-2.67 3.88-3.53l1.47 1.47-3.15 3.14q-.42.42-.33.72a1.41 1.41 0 0 0 .34.48l.89.89 3.36-3.09 1.46 1.46-3.15 3.34 3.07 3.07zM34.8 100.25a20.66 20.66 0 0 0 1.87-2.11l1.17 1.17a5.77 5.77 0 0 1-.83 1.27q-.6.74-.95 1.1l-1.13 1.14a2.41 2.41 0 0 1-2.23.88 6.21 6.21 0 0 1-2.7-1.83 9.52 9.52 0 0 1-1.34-1.6 2.37 2.37 0 0 1-.4-1.34 2.45 2.45 0 0 1 .39-1.23 7.12 7.12 0 0 1 1-1.22l1-1a6.66 6.66 0 0 1 .77-.56 2 2 0 0 1 .74-.3 1.84 1.84 0 0 1 .72 0 3.68 3.68 0 0 1 1.65 1.1 1.79 1.79 0 0 1 .4 2.39 4.08 4.08 0 0 1-.66.83l-1.69 1.69q.56.56.94.47a1.83 1.83 0 0 0 .83-.51l.25-.25zm-2.26-1.87a.56.56 0 0 0 .19-.56.83.83 0 0 0-.22-.31 3.22 3.22 0 0 0-.32-.28.6.6 0 0 0-.3-.12c-.18 0-.39.09-.63.33a4.81 4.81 0 0 0-.49.54.82.82 0 0 0-.14.41c0 .25.2.59.64 1l.12.1zM37.31 97.35l-.5-.49a2.25 2.25 0 0 1-.71-1.6 2.49 2.49 0 0 1 .9-1.78l1.62-1.62a1.31 1.31 0 0 0-.24-.24q-.41-.41-.69-.35a2 2 0 0 0-.81.59q-.53.53-2.19 2.43l-1.06-1.07a7.37 7.37 0 0 1 .88-1.5A18 18 0 0 1 36 90a3.9 3.9 0 0 1 2-1.2 2.4 2.4 0 0 1 2.08.89L44 93.6l-1.49 1.49-1-.21a1.86 1.86 0 0 1-.11 1 2.87 2.87 0 0 1-.67 1.12 2.62 2.62 0 0 1-1.88.92 2.16 2.16 0 0 1-1.54-.57zm2.62-2.21a1.92 1.92 0 0 0 .56-1.38l-.87-.87-1 1.16a.64.64 0 0 0 .1 1l.18.18q.33.33.59.23a1.12 1.12 0 0 0 .44-.32zM40.15 88.61l-.92-.92.57-1.28-1.3-1.89 1.58-1.58 1.59 1.59 1.21-1.21 1.28 1.28L43 85.81l2 2.08a2.57 2.57 0 0 0 .89.66 1 1 0 0 0 .69 0 6.7 6.7 0 0 0 .88-.45l1.05 1.05L47 90.64a2.22 2.22 0 0 1-1 .61q-1.12.28-2.56-1.16l-2.4-2.4zM47.23 86.46l-3.73-3.73 1.88-1.87 3.77 3.77q.48.48.85.37a1.53 1.53 0 0 0 .46-.36 2.08 2.08 0 0 0 .61-1.51l-4-4L49 77.26 54.68 83l-1.53 1.53-.92-.24c0 .12-.07.29-.12.5l-.12.51a3.42 3.42 0 0 1-.16.45 3.15 3.15 0 0 1-.73 1 3.25 3.25 0 0 1-1.1.75 1.6 1.6 0 0 1-1 .09 3.92 3.92 0 0 1-1.77-1.13zM55.59 82.06l-5.71-5.71 1.62-1.62 1 .47a2.87 2.87 0 0 1 .06-1 4.93 4.93 0 0 1 .19-.57 2.71 2.71 0 0 1 .57-.81 2.6 2.6 0 0 1 .63-.5L55.62 74l-.88.86a3.34 3.34 0 0 0-.72 1 1.21 1.21 0 0 0 .05 1l3.39 3.39zM61.93 73.12A20.45 20.45 0 0 0 63.8 71l1.2 1.19a5.8 5.8 0 0 1-.83 1.27q-.6.74-.95 1.1l-1.13 1.14a2.41 2.41 0 0 1-2.23.88 6.2 6.2 0 0 1-2.69-1.83 9.55 9.55 0 0 1-1.34-1.6 2.37 2.37 0 0 1-.4-1.34 2.45 2.45 0 0 1 .39-1.23 7.15 7.15 0 0 1 1-1.22l1-1a6.57 6.57 0 0 1 .77-.56 2 2 0 0 1 .73-.3 1.84 1.84 0 0 1 .72 0 3.68 3.68 0 0 1 1.65 1.1 1.79 1.79 0 0 1 .4 2.39 4.08 4.08 0 0 1-.66.83l-1.69 1.69q.56.56.94.47a1.82 1.82 0 0 0 .83-.51l.25-.25zm-2.26-1.87a.56.56 0 0 0 .19-.56.83.83 0 0 0-.22-.31 3.22 3.22 0 0 0-.32-.28.59.59 0 0 0-.32-.1c-.18 0-.39.09-.63.33a4.76 4.76 0 0 0-.49.54.81.81 0 0 0-.14.41c0 .25.2.59.64 1l.12.1zM63.33 68.93a10 10 0 0 1-1.72-2 2.19 2.19 0 0 1 .57-3 5.66 5.66 0 0 1 2.06-1.35l-3-3 1.88-1.87 8.44 8.44L70 67.67l-.86-.26a3.83 3.83 0 0 1-1.07 2.32 2.35 2.35 0 0 1-2.21.81 5.36 5.36 0 0 1-2.53-1.61zm.49-3.84a1.15 1.15 0 0 0 .25.67 7.92 7.92 0 0 0 1 1.2 3.8 3.8 0 0 0 1.24.93.74.74 0 0 0 .83-.19 2.49 2.49 0 0 0 .86-1.44l-2.6-2.58a3.71 3.71 0 0 0-1.31.93.84.84 0 0 0-.27.47zM75.41 62.24l-7.87-7.87 3.66-3.67a3.43 3.43 0 0 1 2.55-1.24 3.79 3.79 0 0 1 2.37 1.29 5.59 5.59 0 0 1 1 1.38 3.15 3.15 0 0 1 .38 1.18 2.26 2.26 0 0 1-.17 1 3.82 3.82 0 0 1-.82 1.19 15.76 15.76 0 0 1-1.3 1.11q-.9.71-1 .73l3 3zM73 56l1.61-1.61a.89.89 0 0 0 .3-.79 2 2 0 0 0-.62-1q-1-1-1.7-.26L70.94 54zM82.3 55.35l-5.71-5.71L78.21 48l1 .47a2.88 2.88 0 0 1 .06-1 5.05 5.05 0 0 1 .19-.57 2.71 2.71 0 0 1 .57-.81 2.61 2.61 0 0 1 .63-.5l1.69 1.69-.88.86a3.33 3.33 0 0 0-.72 1 1.21 1.21 0 0 0 .05 1l3.39 3.39zM84 48.14A6.75 6.75 0 0 1 82.41 46a2.34 2.34 0 0 1 0-1.77 5.93 5.93 0 0 1 1.4-1.93 4.18 4.18 0 0 1 2.83-1.54 4.71 4.71 0 0 1 2.91 1.68 4.6 4.6 0 0 1 1.67 2.86 4.28 4.28 0 0 1-1.57 2.8 4.25 4.25 0 0 1-2.84 1.56A4.4 4.4 0 0 1 84 48.14zm1.12-2.65q.36.39.89.92a4.51 4.51 0 0 0 .92.75.84.84 0 0 0 .66.14 1.6 1.6 0 0 0 .6-.42 4.85 4.85 0 0 0 .45-.49 1 1 0 0 0 .17-.35.53.53 0 0 0-.08-.41 5.12 5.12 0 0 0-.86-1.07q-.61-.61-.89-.85a5 5 0 0 0-.53-.39.68.68 0 0 0-.45-.12 2 2 0 0 0-1.17.89.78.78 0 0 0-.17.68 1.78 1.78 0 0 0 .42.72zM86.64 38l-1.09-1.09a.35.35 0 0 1 0-.55L87 34.87a.32.32 0 0 1 .26-.1.42.42 0 0 1 .27.13l1.08 1.1a.31.31 0 0 1 0 .5l-1.44 1.44a.41.41 0 0 1-.26.13.32.32 0 0 1-.27-.07zm9.49 9.37l-8.61-8.61 1.88-1.87 5.75 5.75.54.54a6.94 6.94 0 0 1 1.85 2.79zM97.88 37.17a20.66 20.66 0 0 0 1.87-2.11l1.17 1.17a5.8 5.8 0 0 1-.83 1.27q-.6.74-.95 1.1L98 39.73a2.41 2.41 0 0 1-2.23.88 6.21 6.21 0 0 1-2.69-1.82 9.56 9.56 0 0 1-1.34-1.61 2.37 2.37 0 0 1-.4-1.34 2.46 2.46 0 0 1 .39-1.23 7.15 7.15 0 0 1 1-1.22l1-1a6.61 6.61 0 0 1 .77-.56 2 2 0 0 1 .73-.3 1.84 1.84 0 0 1 .72 0 3.68 3.68 0 0 1 1.65 1.1 1.79 1.79 0 0 1 .4 2.47 4.06 4.06 0 0 1-.66.83l-1.69 1.69q.56.56.94.47a1.82 1.82 0 0 0 .83-.51l.25-.25zm-2.26-1.87a.56.56 0 0 0 .19-.56.83.83 0 0 0-.22-.31 3.22 3.22 0 0 0-.32-.28A.6.6 0 0 0 95 34c-.18 0-.39.09-.63.33a4.76 4.76 0 0 0-.49.54.82.82 0 0 0-.14.41c0 .25.2.59.64 1l.12.1zM104.9 32.87l-.79.77-.09.09a2.48 2.48 0 0 1-3.34.35 8.17 8.17 0 0 1-1.57-1.27 8.58 8.58 0 0 1-1.28-1.56 3.1 3.1 0 0 1-.49-1.32 2.56 2.56 0 0 1 .85-2 12.89 12.89 0 0 1 3.23-2.5l1.05 1.05q-1 .85-1.59 1.46t-.7.72l-.2.28a.57.57 0 0 0-.11.29 1.53 1.53 0 0 0 0 .3 1 1 0 0 0 .17.39 8.83 8.83 0 0 0 .91 1 9.56 9.56 0 0 0 .88.8 1.23 1.23 0 0 0 .63.28.8.8 0 0 0 .51-.12 4.47 4.47 0 0 0 .63-.55q.87-.87 1.62-1.75l.24-.28 1.06 1.07a3.4 3.4 0 0 1-.67 1.34q-.52.74-.95 1.16zM102.92 25.84l-.92-.93.57-1.28-1.29-1.89 1.58-1.58 1.59 1.59 1.21-1.21 1.28 1.28-1.21 1.18 2.08 2.08a2.57 2.57 0 0 0 .89.66 1 1 0 0 0 .69 0 6.85 6.85 0 0 0 .88-.45l1.05 1.05-1.53 1.53a2.22 2.22 0 0 1-1 .61q-1.12.28-2.56-1.16l-2.4-2.4z" fill="#fff"/><path fill="#52c393" d="M0 152.52v17.2l26.68-26.68L0 152.52"/><path fill="#3aa879" d="M26.68 143.04l-8.6-8.6L0 152.52l26.68-9.48"/><path fill="#52c393" d="M152.53 0h17.21l-26.68 26.68L152.53 0"/><path fill="#3aa879" d="M143.06 26.68l-8.61-8.6L152.53 0l-9.47 26.68"/></svg>