<svg id="Layer_1" data-name="Layer 1" xmlns="http://www.w3.org/2000/svg" viewBox="0 0 184.44 40.51"><title>fsu</title><path d="M48,25.72a2.79,2.79,0,0,1,1.82-.56,4.32,4.32,0,0,1,1.16.15c.1,0,.1.05.2.05,0,.15.05.56.1,1a.15.15,0,0,1-.2,0,1.21,1.21,0,0,0-1.37-1,1.82,1.82,0,0,0-1.87,2,2,2,0,0,0,2,2.18,1.37,1.37,0,0,0,1.37-1,.1.1,0,0,1,.15.05,2.35,2.35,0,0,1-.3.91c-.1,0-.15.05-.25.05a4,4,0,0,1-1.06.15,2.78,2.78,0,0,1-1.67-.46,2.07,2.07,0,0,1-1-1.82A2.53,2.53,0,0,1,48,25.72Zm3.8,1.82a2.3,2.3,0,0,1,2.38-2.33,2.22,2.22,0,0,1,2.33,2.28,2.26,2.26,0,0,1-2.33,2.33A2.32,2.32,0,0,1,51.8,27.55Zm4,.1c0-1.11-.51-2.28-1.77-2.28-.71,0-1.57.46-1.57,1.92,0,1,.46,2.28,1.77,2.28C55,29.57,55.8,29,55.8,27.65Zm1.82-1.37c0-.71,0-.81-.46-.86H57c-.05-.05-.05-.15,0-.15h1.67c.05,0,.05.15,0,.15h-.15c-.41.05-.41.15-.41.86v2.33c0,.41,0,.61.15.71s.2.15.71.15a1.76,1.76,0,0,0,.81-.1,1.46,1.46,0,0,0,.46-.66.1.1,0,0,1,.15.05,4.77,4.77,0,0,1-.3.91H57c-.05,0-.05-.1,0-.15h.2c.41-.05.41-.15.41-.81V26.28Zm3.7,0c0-.71,0-.81-.46-.86h-.15c-.05-.05-.05-.15,0-.15h1.67c.05,0,.05.15,0,.15h-.15c-.41.05-.41.15-.41.86v2.33c0,.41,0,.61.15.71s.2.15.71.15a1.76,1.76,0,0,0,.81-.1,1.46,1.46,0,0,0,.46-.66.1.1,0,0,1,.15.05,4.77,4.77,0,0,1-.3.91H60.66c-.05,0-.05-.1,0-.15h.2c.41-.05.41-.15.41-.81V26.28Zm3.7,0c0-.71,0-.81-.41-.86h-.1c-.05-.05-.05-.15,0-.15h3a3.77,3.77,0,0,1,.1.91c-.05.05-.15.05-.15,0-.1-.3-.15-.56-.51-.61a2.28,2.28,0,0,0-.66-.05h-.46c-.2,0-.2,0-.2.25v1.32c0,.2,0,.2.2.2h.41a1.28,1.28,0,0,0,.56-.05.35.35,0,0,0,.15-.25l.05-.25c.05-.05.15-.05.15,0s-.05.41-.05.66.05.51.05.66-.15.05-.15,0l-.05-.25c-.05-.1-.05-.2-.2-.25a1.27,1.27,0,0,0-.51-.05h-.41c-.2,0-.2,0-.2.2v1a1.3,1.3,0,0,0,.1.71c.1.1.2.15.81.15a2.51,2.51,0,0,0,.86-.1,1.54,1.54,0,0,0,.46-.66.1.1,0,0,1,.15.05,3.84,3.84,0,0,1-.3.91H64.41c-.05,0-.05-.1,0-.15h.2c.41-.05.41-.15.41-.81ZM72.36,29q0,.38.15.46v.1c-.1,0-.2.05-.3.05a4.7,4.7,0,0,1-1.22.15A2.6,2.6,0,0,1,69,29a2.06,2.06,0,0,1-.61-1.52A2.36,2.36,0,0,1,69,25.92a2.83,2.83,0,0,1,2.13-.76,3,3,0,0,1,.86.1,1.26,1.26,0,0,0,.41.05c0,.2.05.56.1,1,0,.05-.15.05-.2,0a1.26,1.26,0,0,0-1.37-1A1.76,1.76,0,0,0,69,27.24c0,1.27.66,2.28,2,2.28.41,0,.66-.1.71-.2s.05-.15.05-.41v-.25c0-.56,0-.61-.46-.66L71,28c-.05-.05-.05-.15,0-.15h1.67a.09.09,0,0,1,0,.15h-.1c-.3.05-.3.2-.3.56V29Zm1.52-2.73c0-.71,0-.81-.41-.86h-.1c-.05-.05-.05-.15,0-.15h3a3.77,3.77,0,0,1,.1.91c-.05.05-.15.05-.15,0-.1-.3-.15-.56-.51-.61a2.28,2.28,0,0,0-.66-.05h-.46c-.2,0-.2,0-.2.25v1.32c0,.2,0,.2.2.2h.41a1.28,1.28,0,0,0,.56-.05A.35.35,0,0,0,75.8,27l.05-.25c.05-.05.15-.05.15,0s-.05.41-.05.66.05.51.05.66-.15.05-.15,0l-.05-.25c-.05-.1-.05-.2-.2-.25a1.27,1.27,0,0,0-.51-.05h-.41c-.2,0-.2,0-.2.2v1a1.3,1.3,0,0,0,.1.71c.1.1.2.15.81.15a2.51,2.51,0,0,0,.86-.1,1.54,1.54,0,0,0,.46-.66.1.1,0,0,1,.15.05,3.84,3.84,0,0,1-.3.91H73.27c-.05,0-.05-.1,0-.15h.2c.41-.05.41-.15.41-.81V26.28Zm5,1.27a2.3,2.3,0,0,1,2.38-2.33,2.22,2.22,0,0,1,2.33,2.28,2.26,2.26,0,0,1-2.33,2.33A2.32,2.32,0,0,1,78.89,27.55Zm4,.1c0-1.11-.51-2.28-1.77-2.28-.71,0-1.57.46-1.57,1.92,0,1,.46,2.28,1.77,2.28C82.13,29.57,82.89,29,82.89,27.65Zm2.38-.51c0,.2,0,.2.2.2h.46a1.43,1.43,0,0,0,.56-.05.35.35,0,0,0,.15-.25l.05-.25c.05-.05.15-.05.15,0s-.05.41-.05.66.05.51.05.66a.09.09,0,0,1-.15,0l-.05-.25a.51.51,0,0,0-.2-.25,1.27,1.27,0,0,0-.51-.05h-.46c-.2,0-.2,0-.2.2v.91c0,.71,0,.81.41.81h.2c.05.05.05.15,0,.15H84.21c-.05,0-.05-.1,0-.15h.15c.41-.05.41-.15.41-.81V26.28c0-.71,0-.81-.41-.86h-.1c-.05-.05-.05-.15,0-.15h2.89v.86c0,.05-.1.05-.15,0-.05-.3-.15-.56-.46-.61a2.28,2.28,0,0,0-.66-.05h-.41c-.2,0-.2,0-.2.25v1.42ZM90,26.28c0-.71,0-.81-.41-.86h-.1c-.05-.05-.05-.15,0-.15h3a3.77,3.77,0,0,1,.1.91c-.05.05-.15.05-.15,0-.1-.3-.15-.56-.51-.61a2.28,2.28,0,0,0-.66-.05h-.46c-.2,0-.2,0-.2.25v1.32c0,.2,0,.2.2.2h.41a1.28,1.28,0,0,0,.56-.05A.35.35,0,0,0,91.9,27l.05-.25c.05-.05.15-.05.15,0s-.05.41-.05.66.05.51.05.66-.15.05-.15,0l-.05-.25c-.05-.1-.05-.2-.2-.25a1.27,1.27,0,0,0-.51-.05h-.41c-.2,0-.2,0-.2.2v1a1.3,1.3,0,0,0,.1.71c.1.1.2.15.81.15a2.51,2.51,0,0,0,.86-.1,1.54,1.54,0,0,0,.46-.66.1.1,0,0,1,.15.05,3.84,3.84,0,0,1-.3.91H89.37c-.05,0-.05-.1,0-.15h.2c.41-.05.41-.15.41-.81V26.28Zm3.9-.15c0-.46-.05-.61-.3-.66h-.15c-.05-.05-.05-.15,0-.15.56-.05,1.11-.05,1.67-.05a4.48,4.48,0,0,1,1.47.2,2,2,0,0,1,1.37,2,2.14,2.14,0,0,1-1.16,2,3,3,0,0,1-1.47.3c-.41,0-.86-.05-1.06-.05h-.81c-.05,0-.05-.1,0-.15h.15c.41-.05.41-.15.41-.81V26.13Zm.56,2.38c0,.35,0,.56.15.71s.41.25.81.25c1.32,0,1.87-.86,1.87-2.08a1.89,1.89,0,0,0-2.08-2,1.24,1.24,0,0,0-.66.1c-.05.05-.05.2-.05.51v2.48Zm7.8-1.57a5.36,5.36,0,0,0-.1-1.37c-.05-.1-.15-.1-.35-.15h-.15c-.05-.05-.05-.15,0-.15h1.47a.09.09,0,0,1,0,.15h-.15a.39.39,0,0,0-.35.15,5.36,5.36,0,0,0-.1,1.37v.76a2.31,2.31,0,0,1-.46,1.57,1.8,1.8,0,0,1-1.27.51,2.17,2.17,0,0,1-1.27-.35A1.88,1.88,0,0,1,99,27.85V26.28c0-.71,0-.81-.41-.86h-.15c-.05-.05-.05-.15,0-.15h1.62c.05,0,.05.15,0,.15H99.9c-.41.05-.41.15-.41.86V27.7c0,1.06.35,1.77,1.37,1.77s1.32-.76,1.32-1.77v-.76Zm2.08-1.22a2.79,2.79,0,0,1,1.82-.56,4.32,4.32,0,0,1,1.16.15c.1,0,.1.05.2.05,0,.15.05.56.1,1a.15.15,0,0,1-.2,0,1.21,1.21,0,0,0-1.37-1,1.82,1.82,0,0,0-1.87,2,2,2,0,0,0,2,2.18,1.37,1.37,0,0,0,1.37-1,.1.1,0,0,1,.15.05,2.35,2.35,0,0,1-.3.91c-.1,0-.15.05-.25.05a4,4,0,0,1-1.06.15,2.78,2.78,0,0,1-1.67-.46,2.07,2.07,0,0,1-1-1.82A2.74,2.74,0,0,1,104.31,25.72Zm6.23,2.43c-.05-.15-.05-.15-.25-.15h-1c-.15,0-.2,0-.25.15l-.25.71a2.3,2.3,0,0,0-.15.56c0,.1.05.1.2.15h.2c.05.05.05.15,0,.15h-1.37c-.05-.05-.05-.15,0-.15h.2a.47.47,0,0,0,.41-.3c.1-.3.3-.76.61-1.47l.66-1.82c.1-.25.15-.35.1-.46a.91.91,0,0,0,.35-.25c.05,0,.1,0,.1.05l.3.91.91,2.68c.2.56.3.66.56.71h.2c.05.05.05.15,0,.15h-1.57c-.05-.05-.05-.15,0-.15h.2c.15,0,.25-.05.25-.1a2.06,2.06,0,0,0-.1-.35Zm-1.32-.61c-.05.15-.05.15.15.15h.81c.2,0,.2-.05.15-.2L110,26.43a1.71,1.71,0,0,0-.15-.41h0c0,.05-.1.2-.15.41ZM114,28.66c0,.71,0,.81.41.81h.2c.05.05.05.15,0,.15h-1.77c-.05,0-.05-.15,0-.15h.25c.41-.05.41-.15.41-.81v-3c0-.2,0-.2-.2-.2h-.35c-.3,0-.66,0-.81.15a2.38,2.38,0,0,0-.3.46.1.1,0,0,1-.15-.05,7.4,7.4,0,0,0,.25-1h.1c.05.2.25.2.56.2h2.68c.35,0,.41,0,.51-.2h.1a7.61,7.61,0,0,0-.1,1c-.05.05-.15.05-.15,0a.86.86,0,0,0-.15-.51,1.42,1.42,0,0,0-.76-.15h-.46c-.2,0-.2,0-.2.2v3.09Zm2.78-2.38c0-.71,0-.81-.41-.86h-.15c-.05-.05-.05-.15,0-.15h1.67c.05,0,.05.15,0,.15h-.15c-.41.05-.41.15-.41.86v2.38c0,.71,0,.81.41.86h.15c.05.05.05.15,0,.15h-1.67c-.05,0-.05-.1,0-.15h.15c.41-.05.41-.15.41-.86Zm1.72,1.27a2.3,2.3,0,0,1,2.38-2.33,2.22,2.22,0,0,1,2.33,2.28,2.26,2.26,0,0,1-2.33,2.33A2.29,2.29,0,0,1,118.48,27.55Zm4,.1c0-1.11-.51-2.28-1.77-2.28-.71,0-1.57.46-1.57,1.92,0,1,.46,2.28,1.77,2.28C121.73,29.57,122.48,29,122.48,27.65Zm5.42.91v1.16c0,.05-.05.05-.1.05s-.25-.35-.86-1L125.37,27c-.2-.2-.61-.76-.76-.91h0a1.12,1.12,0,0,0-.05.46V28a5.78,5.78,0,0,0,.1,1.37.48.48,0,0,0,.35.1h.2c.05.05.05.15,0,.15h-1.47a.09.09,0,0,1,0-.15h.2a.31.31,0,0,0,.3-.15,6,6,0,0,0,.1-1.37V26a.51.51,0,0,0-.15-.46.57.57,0,0,0-.41-.15h-.1c-.05-.05-.05-.15,0-.15h1.06a11.17,11.17,0,0,0,1.11,1.47l.66.71c.46.51.81.91,1.11,1.22h0c.05-.05.05-.15.05-.3V26.94a3.91,3.91,0,0,0-.15-1.37.8.8,0,0,0-.41-.15H127c-.05-.05-.05-.15,0-.15h1.52a.09.09,0,0,1,0,.15h-.1c-.2.05-.35.1-.35.15a6,6,0,0,0-.1,1.37v1.62Zm-79-12.3c0,.25.05.25.35.25H50a3.39,3.39,0,0,0,.86-.05.41.41,0,0,0,.25-.35l.1-.35a.23.23,0,0,1,.25,0c0,.2-.05.61-.05,1s.05.71.05.91a.23.23,0,0,1-.25,0l-.1-.35a.54.54,0,0,0-.3-.35,2.92,2.92,0,0,0-.76-.05h-.71c-.3,0-.35,0-.35.25v1.32c0,1,0,1.11.61,1.16l.35.05a.23.23,0,0,1,0,.25c-.61,0-1-.05-1.37-.05a10.58,10.58,0,0,0-1.27.05c-.05-.05-.1-.2,0-.25l.25-.05c.61-.05.61-.2.61-1.16V15c0-1,0-1.11-.61-1.22h-.15a.23.23,0,0,1,0-.25c.41,0,.76.05,1.16.05h1.87a8,8,0,0,0,1.37-.05,9.77,9.77,0,0,0,.05,1.27.22.22,0,0,1-.25.05c-.1-.41-.2-.76-.71-.91a4.94,4.94,0,0,0-1-.05h-.61c-.3,0-.3,0-.3.35v2ZM53.52,15c0-1,0-1.16-.66-1.22h-.25a.23.23,0,0,1,0-.25c.56,0,.91.05,1.32.05a11.46,11.46,0,0,0,1.27-.05c.05.05.1.2,0,.25h-.25c-.61.05-.61.2-.61,1.22v3.29c0,.61.05.86.2,1s.3.2,1.11.2a4.47,4.47,0,0,0,1.27-.1,2,2,0,0,0,.66-.91c.05-.05.25,0,.25.05a12,12,0,0,1-.41,1.32c-.51,0-1.47-.05-2.53-.05H54a12.84,12.84,0,0,0-1.32.05c-.05-.05-.1-.2,0-.25l.3-.05c.61-.05.61-.2.61-1.16V15Zm4.71,1.77a3.42,3.42,0,0,1,3.65-3.34,3.25,3.25,0,0,1,3.54,3.24,3.61,3.61,0,0,1-7.19.1Zm6.13.2c0-1.57-.76-3.24-2.68-3.24a2.42,2.42,0,0,0-2.43,2.73c0,1.42.71,3.19,2.73,3.19A2.38,2.38,0,0,0,64.36,17Zm2-2c0-.91-.05-1.06-.46-1.11l-.3-.05a.23.23,0,0,1,0-.25c.56-.05,1.27-.05,2.28-.05a3.86,3.86,0,0,1,1.72.3,1.4,1.4,0,0,1,.86,1.32,1.76,1.76,0,0,1-1.27,1.57c-.05.05,0,.15.05.2a11.8,11.8,0,0,0,2,2.53,1,1,0,0,0,.71.25c.05,0,.05.1,0,.15a1.12,1.12,0,0,1-.46.05,2.45,2.45,0,0,1-2.13-1.16c-.25-.35-.66-1-1-1.42a.73.73,0,0,0-.71-.3c-.46,0-.46,0-.46.2v1.22c0,1,0,1.11.61,1.16l.2.05a.23.23,0,0,1,0,.25c-.46,0-.81-.05-1.22-.05a11,11,0,0,0-1.27.05.17.17,0,0,1,0-.25l.25-.05c.61-.05.61-.2.61-1.16V15Zm.86,1.37c0,.15,0,.25.05.3s.2.05.71.05a2,2,0,0,0,1.06-.25,1.34,1.34,0,0,0,.51-1.16A1.45,1.45,0,0,0,68,13.82c-.61,0-.66.05-.66.3v2.23ZM73.72,15c0-1,0-1.16-.61-1.22h-.25a.23.23,0,0,1,0-.25c.51,0,.86.05,1.27.05a11.46,11.46,0,0,0,1.27-.05c.05.05.1.2,0,.25h-.25c-.61.05-.61.2-.61,1.22v3.34c0,1,0,1.11.61,1.22l.25.05a.23.23,0,0,1,0,.25c-.51,0-.86-.05-1.27-.05a11.46,11.46,0,0,0-1.27.05c-.05-.05-.1-.2,0-.25l.25-.05c.61-.05.61-.2.61-1.22Zm3.44-.2c0-.66-.05-.86-.46-.91l-.2-.05a.14.14,0,0,1,0-.25c.86-.05,1.67-.05,2.53-.05a6.09,6.09,0,0,1,2.23.3,2.84,2.84,0,0,1,2.08,2.78,3.09,3.09,0,0,1-1.77,2.84,5,5,0,0,1-2.28.46c-.66,0-1.32-.1-1.67-.1a11,11,0,0,0-1.27.05c-.05-.05-.1-.2,0-.25l.25-.05c.61-.05.61-.2.61-1.16v-3.6ZM78,18.18a1.68,1.68,0,0,0,.2,1c.2.3.61.41,1.27.41a2.61,2.61,0,0,0,2.84-2.94c0-1.06-.56-2.78-3.19-2.78-.61,0-.91.05-1,.15s-.1.3-.1.71Zm9.22-.56c-.05-.2-.1-.25-.41-.25H85.27c-.25,0-.3.05-.41.2l-.35,1a2.72,2.72,0,0,0-.2.76c0,.1.05.15.3.2l.35.05a.23.23,0,0,1,0,.25,9.49,9.49,0,0,1-1.06-.05,5.51,5.51,0,0,0-1,.05c-.05-.05-.1-.2,0-.25l.35-.05a.62.62,0,0,0,.61-.46c.2-.46.46-1.06.91-2.13l1.06-2.53c.15-.35.2-.51.15-.66a1,1,0,0,0,.51-.35c.05,0,.15,0,.15.1.15.41.3.86.46,1.27l1.42,3.8c.3.81.41,1,.86,1l.25.05a.23.23,0,0,1,0,.25c-.41,0-.76-.05-1.22-.05a7.51,7.51,0,0,0-1.16.05.14.14,0,0,1,0-.25l.3-.05c.2,0,.35-.05.35-.15a1.65,1.65,0,0,0-.15-.51Zm-2-.86c-.1.2-.05.2.2.2h1.27c.3,0,.3-.05.2-.3l-.56-1.52a3.67,3.67,0,0,0-.25-.61h0a1.94,1.94,0,0,0-.25.56ZM94.38,20a3.11,3.11,0,0,1-1.57-.35,4,4,0,0,1-.25-1.32c.05-.05.2-.1.25-.05a1.78,1.78,0,0,0,1.77,1.42c.86,0,1.27-.51,1.27-1.06A1.44,1.44,0,0,0,95,17.27l-1-.61A2,2,0,0,1,93,15c0-.91.76-1.62,2.08-1.62a6.2,6.2,0,0,1,1,.1,1,1,0,0,0,.35.05,3.44,3.44,0,0,1,.2,1.16c-.05.05-.2.1-.25.05a1.31,1.31,0,0,0-1.37-1.06c-1,0-1.22.61-1.22,1.06a1.5,1.5,0,0,0,.86,1.16l.81.46a2.07,2.07,0,0,1,1.27,1.82A2,2,0,0,1,94.38,20Zm6.43-1.57c0,1,0,1.11.61,1.16l.3.05a.23.23,0,0,1,0,.25c-.56,0-.91-.05-1.32-.05s-.76,0-1.42.05c-.05-.05-.1-.2,0-.25l.35-.05c.56-.05.61-.2.61-1.16v-4.2c0-.3,0-.3-.3-.3h-.56a2,2,0,0,0-1.27.25,1.42,1.42,0,0,0-.46.66.22.22,0,0,1-.25-.05c.15-.41.3-1,.41-1.42.05,0,.15-.05.2,0,.05.3.41.3.86.3h4.1c.56,0,.66,0,.81-.25a.3.3,0,0,1,.2.05,5,5,0,0,0-.15,1.42.23.23,0,0,1-.25,0c-.05-.25-.1-.61-.25-.71a2.2,2.2,0,0,0-1.16-.25h-.71c-.3,0-.3,0-.3.3v4.2Zm6.48-.76c-.05-.2-.1-.25-.41-.25h-1.52c-.25,0-.3.05-.41.2l-.35,1a2.72,2.72,0,0,0-.2.76c0,.1.05.15.3.2l.35.05a.23.23,0,0,1,0,.25A9.49,9.49,0,0,1,104,19.8a5.51,5.51,0,0,0-1,.05c-.05-.05-.1-.2,0-.25l.35-.05a.62.62,0,0,0,.61-.46c.2-.46.46-1.06.91-2.13L106,14.43c.15-.35.2-.51.15-.66a1,1,0,0,0,.51-.35c.05,0,.15,0,.15.1.15.41.3.86.46,1.27l1.42,3.8c.3.81.41,1,.86,1l.25.05a.23.23,0,0,1,0,.25c-.41,0-.76-.05-1.22-.05a7.51,7.51,0,0,0-1.16.05.14.14,0,0,1,0-.25l.3-.05c.2,0,.35-.05.35-.15a1.65,1.65,0,0,0-.15-.51Zm-2-.86c-.1.2-.05.2.2.2h1.27c.3,0,.3-.05.2-.3l-.56-1.52a3.67,3.67,0,0,0-.25-.61h0a1.94,1.94,0,0,0-.25.56Zm7.24,1.62c0,1,0,1.11.61,1.16l.3.05a.23.23,0,0,1,0,.25c-.56,0-.91-.05-1.32-.05s-.76,0-1.42.05c-.05-.05-.1-.2,0-.25l.35-.05c.56-.05.61-.2.61-1.16v-4.2c0-.3,0-.3-.3-.3h-.56a2,2,0,0,0-1.27.25,1.42,1.42,0,0,0-.46.66.22.22,0,0,1-.25-.05c.15-.41.3-1,.41-1.42.05,0,.15-.05.2,0,.05.3.41.3.86.3h4.1c.56,0,.66,0,.81-.25a.3.3,0,0,1,.2.05,5,5,0,0,0-.15,1.42.23.23,0,0,1-.25,0c-.05-.25-.1-.61-.25-.71a2.2,2.2,0,0,0-1.16-.25h-.71c-.3,0-.3,0-.3.3v4.2ZM116.76,15c0-1,0-1.11-.61-1.22H116a.23.23,0,0,1,0-.25c.46,0,.76.05,1.22.05h1.92a8,8,0,0,0,1.37-.05c.05.15.1.86.15,1.27a.23.23,0,0,1-.25,0c-.15-.46-.25-.76-.76-.91a4.94,4.94,0,0,0-1-.05H118c-.3,0-.3,0-.3.35v1.87c0,.25.05.25.35.25h.61a3.39,3.39,0,0,0,.86-.05.41.41,0,0,0,.25-.35l.1-.41a.23.23,0,0,1,.25,0c0,.2-.05.61-.05,1s.05.71.05.91a.23.23,0,0,1-.25,0l-.1-.35c-.05-.15-.1-.3-.3-.35a2.92,2.92,0,0,0-.76-.05H118c-.3,0-.35,0-.35.25v1.32c0,.51.05.81.2,1s.35.2,1.22.2a3.44,3.44,0,0,0,1.32-.15,2.06,2.06,0,0,0,.71-.91c.05-.05.2,0,.25.05a5,5,0,0,1-.46,1.32c-.91,0-1.82-.05-2.73-.05h-.91c-.46,0-.76,0-1.37.05-.05-.05-.1-.2,0-.25l.35-.05c.56-.05.61-.2.61-1.16V15Zm13.92,1a5.63,5.63,0,0,0-.2-2,.6.6,0,0,0-.51-.2h-.25c-.05-.05-.05-.2,0-.2.41,0,.76.05,1.16.05a7.13,7.13,0,0,0,1.06-.05c.1.05.05.15,0,.2h-.25a.6.6,0,0,0-.51.2A7.41,7.41,0,0,0,131,15.9V17a3.32,3.32,0,0,1-.71,2.28,2.82,2.82,0,0,1-1.92.71,3.06,3.06,0,0,1-1.92-.51,2.54,2.54,0,0,1-.81-2.23V15c0-1,0-1.16-.61-1.22h-.25c-.05-.05-.05-.2,0-.2.51,0,.86.05,1.27.05a11.46,11.46,0,0,0,1.27-.05c.05.05.1.2,0,.2h-.25c-.61.05-.61.2-.61,1.22v2c0,1.52.51,2.53,2.08,2.53s2-1.06,2-2.53V15.95Zm8.2,2.23c0,.3,0,1.42.05,1.67,0,.05-.1.1-.2.1a13.26,13.26,0,0,0-1.32-1.42L135,16.05c-.25-.3-1-1.06-1.16-1.27h0a1.91,1.91,0,0,0-.05.61v2.08a6.08,6.08,0,0,0,.2,2c.05.1.25.15.51.2l.3.05a.23.23,0,0,1,0,.25c-.46,0-.81-.05-1.22-.05a7.13,7.13,0,0,0-1.06.05c-.05-.05-.1-.2,0-.25l.25-.05c.25-.05.41-.1.46-.2a7.81,7.81,0,0,0,.15-1.92V14.68a.8.8,0,0,0-.2-.66.88.88,0,0,0-.61-.2h-.15a.23.23,0,0,1,0-.25,10.66,10.66,0,0,0,1.16.05,1.26,1.26,0,0,0,.46-.05,13.89,13.89,0,0,0,1.72,2.08l1,1c.71.71,1.22,1.27,1.67,1.72h0c.05-.05.05-.2.05-.41v-2a6.08,6.08,0,0,0-.2-2c-.05-.1-.2-.15-.61-.2h-.15a.23.23,0,0,1,0-.25c.46,0,.81.05,1.22.05a6.8,6.8,0,0,0,1.06-.05.14.14,0,0,1,0,.25h-.15c-.3.05-.51.1-.56.2A8,8,0,0,0,139,15.9v2.28ZM141.37,15c0-1,0-1.16-.61-1.22h-.25a.23.23,0,0,1,0-.25c.51,0,.86.05,1.27.05a11.46,11.46,0,0,0,1.27-.05c.05.05.1.2,0,.25h-.25c-.61.05-.61.2-.61,1.22v3.34c0,1,0,1.11.61,1.22l.25.05a.23.23,0,0,1,0,.25c-.51,0-.86-.05-1.27-.05a11.46,11.46,0,0,0-1.27.05c-.05-.05-.1-.2,0-.25l.25-.05c.61-.05.61-.2.61-1.22Zm3.19-.41c-.25-.51-.41-.71-.81-.76h-.2a.23.23,0,0,1,0-.25c.3,0,.61.05,1.06.05a9.36,9.36,0,0,0,1.22-.05c.05.05.1.2,0,.25h-.15c-.41.05-.46.1-.46.2a8.84,8.84,0,0,0,.51,1.32c.46,1.11.91,2.18,1.47,3.24.3-.61.76-1.62,1-2.08.3-.66.76-1.72,1-2.13a.73.73,0,0,0,.1-.35c0-.05-.1-.15-.46-.2h-.2a.23.23,0,0,1,0-.25c.3,0,.66.05,1.06.05a5.81,5.81,0,0,0,1-.05.23.23,0,0,1,0,.25h-.3a.55.55,0,0,0-.51.35c-.3.46-.66,1.22-1.16,2.18l-.56,1.16c-.41.86-.86,2-1.06,2.48-.05,0-.05.05-.1.05a.19.19,0,0,1-.15-.05,12.68,12.68,0,0,0-.46-1.27Zm7.14.41c0-1,0-1.11-.61-1.22h-.15a.23.23,0,0,1,0-.25c.46,0,.76.05,1.22.05h1.92a8,8,0,0,0,1.37-.05c.05.15.1.86.15,1.27a.23.23,0,0,1-.25,0c-.15-.46-.25-.76-.76-.91a5.25,5.25,0,0,0-1-.05h-.71c-.3,0-.3,0-.3.35v1.87c0,.25.05.25.35.25h.61a3.39,3.39,0,0,0,.86-.05.41.41,0,0,0,.25-.35l.1-.41a.23.23,0,0,1,.25,0c0,.2-.05.61-.05,1s.05.71.05.91a.23.23,0,0,1-.25,0l-.1-.35c-.05-.15-.1-.3-.3-.35a2.92,2.92,0,0,0-.76-.05H153c-.3,0-.35,0-.35.25v1.32c0,.51.05.81.2,1s.35.2,1.22.2a3.44,3.44,0,0,0,1.32-.15,2.06,2.06,0,0,0,.71-.91c.05-.05.2,0,.25.05a5,5,0,0,1-.46,1.32c-.91,0-1.82-.05-2.73-.05h-.91c-.46,0-.76,0-1.37.05-.05-.05-.1-.2,0-.25l.35-.05c.56-.05.61-.2.61-1.16V15Zm6,0c0-.91-.05-1.06-.46-1.11l-.3-.05a.23.23,0,0,1,0-.25c.56-.05,1.27-.05,2.28-.05a3.86,3.86,0,0,1,1.72.3,1.4,1.4,0,0,1,.86,1.32,1.76,1.76,0,0,1-1.27,1.57c-.05.05,0,.15.05.2a11.8,11.8,0,0,0,2,2.53,1,1,0,0,0,.71.25c.05,0,.05.1,0,.15a1.12,1.12,0,0,1-.46.05,2.45,2.45,0,0,1-2.13-1.16c-.25-.35-.66-1-1-1.42A.73.73,0,0,0,159,17c-.46,0-.46,0-.46.2v1.22c0,1,0,1.11.61,1.16l.2.05a.23.23,0,0,1,0,.25c-.46,0-.81-.05-1.22-.05a11,11,0,0,0-1.27.05.17.17,0,0,1,0-.25l.25-.05c.61-.05.61-.2.61-1.16V15Zm.81,1.37c0,.15,0,.25.05.3s.2.05.71.05a2,2,0,0,0,1.06-.25,1.34,1.34,0,0,0,.51-1.16,1.45,1.45,0,0,0-1.62-1.47c-.61,0-.66.05-.66.3v2.23Zm6.73,3.6a3.11,3.11,0,0,1-1.57-.35,4,4,0,0,1-.25-1.32c.05-.05.2-.1.25-.05a1.78,1.78,0,0,0,1.77,1.42c.86,0,1.27-.51,1.27-1.06a1.44,1.44,0,0,0-.81-1.32l-1-.61A2,2,0,0,1,163.8,15c0-.91.76-1.62,2.08-1.62a6.2,6.2,0,0,1,1,.1,1,1,0,0,0,.35.05,3.44,3.44,0,0,1,.2,1.16c-.05.05-.2.1-.25.05a1.31,1.31,0,0,0-1.37-1.06c-1,0-1.22.61-1.22,1.06a1.5,1.5,0,0,0,.86,1.16l.81.46a2.07,2.07,0,0,1,1.27,1.82A2.07,2.07,0,0,1,165.22,20Zm4-5c0-1,0-1.16-.61-1.22h-.25a.23.23,0,0,1,0-.25c.51,0,.86.05,1.27.05a11.46,11.46,0,0,0,1.27-.05c.05.05.1.2,0,.25h-.25c-.61.05-.61.2-.61,1.22v3.34c0,1,0,1.11.61,1.22l.25.05a.23.23,0,0,1,0,.25c-.51,0-.86-.05-1.27-.05a11.46,11.46,0,0,0-1.27.05c-.05-.05-.1-.2,0-.25l.25-.05c.61-.05.61-.2.61-1.22Zm5.87,3.39c0,1,0,1.11.61,1.16l.3.05a.23.23,0,0,1,0,.25c-.56,0-.91-.05-1.32-.05s-.76,0-1.42.05c-.05-.05-.1-.2,0-.25l.35-.05c.56-.05.61-.2.61-1.16v-4.2c0-.3,0-.3-.3-.3h-.56a2,2,0,0,0-1.27.25,1.42,1.42,0,0,0-.46.66.22.22,0,0,1-.25-.05c.15-.41.3-1,.41-1.42.05,0,.15-.05.2,0,.05.3.41.3.86.3H177c.56,0,.66,0,.81-.25a.3.3,0,0,1,.2.05,5,5,0,0,0-.15,1.42.23.23,0,0,1-.25,0c-.05-.25-.1-.61-.25-.71a2.2,2.2,0,0,0-1.16-.25h-.71c-.3,0-.3,0-.3.3v4.2Zm6.48,0c0,1,.05,1.16.61,1.22l.41.05a.23.23,0,0,1,0,.25c-.61,0-1-.05-1.37-.05a12.35,12.35,0,0,0-1.32.05c-.05-.05-.1-.2,0-.25l.3-.05c.61-.05.61-.2.61-1.22v-.51a2,2,0,0,0-.3-1.16l-1.22-2.18c-.35-.61-.51-.66-.81-.71l-.3-.05a.23.23,0,0,1,0-.25c.3,0,.71.05,1.16.05a7.15,7.15,0,0,0,1.11-.05.18.18,0,0,1,.05.25h-.15c-.35.05-.41.1-.41.15a4.27,4.27,0,0,0,.3.71,20.17,20.17,0,0,0,1.16,2.08c.3-.51.66-1.06,1-1.62a6.06,6.06,0,0,0,.66-1.27c0-.05-.2-.1-.41-.15h-.2a.23.23,0,0,1,0-.25c.35,0,.66.05,1,.05a6.46,6.46,0,0,0,1-.05.14.14,0,0,1,0,.25l-.3.05c-.51.1-.81.66-1.37,1.47l-.66,1a2,2,0,0,0-.46,1.52ZM16.2,5c.05.1.05.1-.05.15l-.35.1c-.1.05-.15,0-.1-.1V4.76c0-.2.05-.41.05-.51a1.66,1.66,0,0,0,.3.41Zm19.8,13a.43.43,0,0,0,.15.3.69.69,0,0,0,.51.1.58.58,0,0,0,.56-.66c-.05-.2-.05-.2-.25-.15l-.86.1C36,17.62,36,17.67,36,17.92ZM19,34.84a.4.4,0,0,0-.41.41c0,.2.1.46.51.66a.56.56,0,0,0,.25-.51C19.39,35,19.19,34.84,19,34.84Zm-.35,1.47a.88.88,0,0,0-.3.61.55.55,0,0,0,.46.66.48.48,0,0,0,.46-.41C19.29,36.71,19,36.51,18.63,36.3ZM5.87,22.58c-.1-.56-.71-.71-1.42-.61s-1.32.56-1.22,1.11.66.76,1.37.66C5.16,23.65,6,23.29,5.87,22.58ZM7.7,10.63l-.35-.1a4.66,4.66,0,0,0-.46-.15,3.43,3.43,0,0,0,.3.46l.2.3q.08.15.15,0l.25-.3C7.8,10.68,7.8,10.68,7.7,10.63Zm-3,3,1.47.71a1.13,1.13,0,0,0,.51.15.52.52,0,0,0,.25-.3c.35-.71-.2-1.27-.76-1.52a1.17,1.17,0,0,0-1.72.56.55.55,0,0,0-.05.25Zm35.85,6.58A20.25,20.25,0,1,1,20.25,0,20.25,20.25,0,0,1,40.51,20.25Zm-.91,0A19.34,19.34,0,1,0,20.25,39.6,19.34,19.34,0,0,0,39.6,20.25Zm-36.3-.51.86.05c.15,0,.15,0,.2-.25a.73.73,0,0,0-.1-.35c-.05-.1-.2-.15-.46-.2a.64.64,0,0,0-.71.56C3,19.75,3,19.75,3.29,19.75Zm35.49.51A18.53,18.53,0,1,1,20.25,1.72,18.54,18.54,0,0,1,38.79,20.25Zm-2.18-3.34-1.57.2c-.41.05-.46.05-.51-.15l-.05-.1c-.05-.05-.15,0-.15,0,.05.25.05.41.1.66s.05.41.1.66c.05.05.15,0,.15,0v-.1c0-.2.05-.25.46-.3l.56-.1c.1,0,.1,0,.1.15s0,.2-.1.25-.41.25-.66.46a.9.9,0,0,0-.35.91.59.59,0,0,0,.1.35c.05,0,.1,0,.1-.05a.43.43,0,0,1,.1-.3,3.84,3.84,0,0,1,1-.86c.05-.05.05-.05.1,0a.68.68,0,0,0,.76.35.7.7,0,0,0,.61-.51,1.69,1.69,0,0,0,.05-.91c-.05-.41-.15-.76-.2-1.11-.05-.05-.15-.05-.15,0v.1C37.12,16.86,37.06,16.86,36.61,16.91Zm-.86-3.14-1.57.56c-.41.15-.41.1-.51-.05l-.1-.2a.1.1,0,0,0-.15.05c.1.3.2.51.25.71l.2.56a6.61,6.61,0,0,0,.35,1A4.37,4.37,0,0,0,35,16.3a.1.1,0,0,0-.05-.15c-.56-.05-.61-.2-.76-.56s-.1-.41-.05-.51.2-.15.35-.2l.51-.2c.15-.05.15-.05.15.05l.1.3a.27.27,0,0,1-.1.41l-.1.05a.1.1,0,0,0,.05.15l.46-.15.46-.15a.1.1,0,0,0-.05-.15h-.1c-.2.05-.25,0-.35-.25l-.1-.3c-.05-.1-.05-.1.1-.15l.76-.25c.15-.05.15-.05.2.1l.1.35a.68.68,0,0,1,0,.46,1.34,1.34,0,0,1-.25.3c0,.05,0,.15.05.15.25-.1.56-.25.66-.3a5,5,0,0,1-.2-.56l-.35-.86c-.05-.2-.15-.41-.2-.61a.1.1,0,0,0-.15.05v.1C36.15,13.62,36.15,13.67,35.75,13.77Zm-1.67-3L32.86,12.3a2.89,2.89,0,0,1-.35.41c0,.05,0,.1.05.1s.05.1.1.1l1.22-.2.86-.1a2.71,2.71,0,0,1,.86-.05.28.28,0,0,1,.25.15l.1.1c.05,0,.15-.05.1-.1a2.2,2.2,0,0,1-.2-.35,4.7,4.7,0,0,1-.25-.51.1.1,0,0,0-.15.05l.05.15c.05.1,0,.15,0,.15a.22.22,0,0,1-.15.05c-.15.05-.71.15-1,.2l-.46.05c-.15,0-.25.05-.35.05a3,3,0,0,0,.2-.3l.66-.86c.15-.25.3-.41.35-.41s.05,0,.15.05l.05.1c.05,0,.1-.05.15-.1-.15-.25-.25-.41-.35-.56a4.45,4.45,0,0,0-.3-.51.19.19,0,0,0-.15.05l.05.2C34.33,10.33,34.33,10.38,34.08,10.73ZM32.81,9.16l-1.27,1.06c-.3.25-.35.25-.51.15l-.1-.1a.11.11,0,0,0-.1.1,4.57,4.57,0,0,0,.46.51c.15.15.25.35.41.51a.11.11,0,0,0,.1-.1l-.05-.1c-.1-.2-.1-.2.2-.51l1.27-1.06c.3-.25.35-.25.51-.15l.1.1a.11.11,0,0,0,.1-.1A4.57,4.57,0,0,0,33.47,9c-.15-.15-.3-.35-.46-.51a.11.11,0,0,0-.1.1l.05.1C33.17,8.86,33.17,8.91,32.81,9.16ZM30.13,6.23c0,.05-.05.1-.2.3l-.71.86a3.58,3.58,0,0,1-.56.61.33.33,0,0,1-.3-.05L28.3,7.9c-.05,0-.1.1-.1.1.15.1.25.2.41.3s.25.25.46.41a.11.11,0,0,0,.1-.1l-.1-.1c-.1-.1-.15-.2-.1-.25a5.35,5.35,0,0,1,.46-.66L30,6.94c.1-.15.15-.2.2-.2V9.16a3.42,3.42,0,0,1-.05.61.86.86,0,0,0,.25.1c.1-.1.25-.35.46-.56l.66-.81a3.58,3.58,0,0,1,.56-.61.33.33,0,0,1,.3.05l.05.05c.05,0,.1-.1.1-.1-.15-.1-.25-.2-.41-.3s-.25-.25-.46-.41a.11.11,0,0,0-.1.1l.1.1c.1.1.15.2.1.25a5.35,5.35,0,0,1-.46.66l-.41.46-.15.15V7.65a7.57,7.57,0,0,1,.05-1.27,1.34,1.34,0,0,1-.3-.25A3.28,3.28,0,0,1,30,5.72a.11.11,0,0,0-.1.1l.1.1A.5.5,0,0,1,30.13,6.23Zm-4.3.46a1.4,1.4,0,0,0,.71.61,1.31,1.31,0,0,0,1,.1,1.36,1.36,0,0,0,.71-.86l.2-.46a3.81,3.81,0,0,1,.41-.71.55.55,0,0,1,.3-.05h.1a.1.1,0,0,0,.05-.15c-.15-.05-.3-.15-.46-.2a3,3,0,0,0-.56-.25.1.1,0,0,0-.05.15l.1.05c.1.05.2.15.15.25a2.57,2.57,0,0,1-.3.76l-.25.51c-.25.56-.66.91-1.16.71s-.41-.86-.2-1.32l.46-1c.2-.35.2-.41.41-.35l.1.05a.1.1,0,0,0,.05-.15c-.2-.1-.41-.15-.61-.25l-.61-.3a.1.1,0,0,0-.05.15l.1.05c.15.1.2.15,0,.56l-.51,1A1.31,1.31,0,0,0,25.82,6.68Zm-5.11-.91c.35.05.56.05.76.1l.56.05c.35.05.81.1,1,.15a1.9,1.9,0,0,0,.25-.71.1.1,0,0,0-.15-.05c-.3.46-.46.46-.86.41s-.41-.1-.46-.15-.05-.2,0-.46l.05-.51c0-.15,0-.15.15-.1l.3.05c.25.05.3.05.3.3V5c.05.05.15.05.15,0a1.4,1.4,0,0,1,.05-.46c0-.15.05-.35.05-.46s-.15-.05-.15,0l.05.05c-.05.2-.15.25-.35.2l-.3-.05c-.1,0-.1,0-.1-.15l.1-.76c0-.15,0-.15.15-.15l.35.05c.2.05.35.1.41.2a1.21,1.21,0,0,1,.15.35c.05.05.15.05.15,0V3.09A5.27,5.27,0,0,0,22.79,3l-1-.1a3,3,0,0,1-.66-.1c-.05,0-.05.1-.05.15h.15c.2.05.2.1.15.51l-.2,1.67c-.05.41-.1.46-.3.46h-.2S20.66,5.77,20.71,5.77ZM17.47,3.7a.19.19,0,0,0,.15.05c.1-.35.2-.51.51-.56h.25c.1,0,.1,0,.1.1l.15,2c.05.41,0,.46-.2.51l-.2.05c-.05.05,0,.15,0,.15A4.37,4.37,0,0,1,19,5.92c.2,0,.41-.05.71-.05.05-.05,0-.15,0-.15h-.2c-.2,0-.25-.05-.25-.46l-.15-2c0-.1,0-.15.1-.15h.25c.35-.05.41.2.51.46.15-.05.3-.05.3-.1a1.9,1.9,0,0,1,0-.76l-.05-.05h-.05c-.05.1-.1.1-.41.15L18.08,3c-.35.05-.35,0-.41-.05h-.05a0,0,0,0,0-.05.05A5.71,5.71,0,0,0,17.47,3.7ZM15,6.73a4.78,4.78,0,0,0,.46-.15,2.23,2.23,0,0,1,.51-.1.1.1,0,0,0-.05-.15h-.15c-.15,0-.15,0-.15-.05V5.57c0-.1,0-.1.1-.1l.51-.15c.15-.05.2-.05.25,0l.2.35a2.63,2.63,0,0,1,.15.25c0,.05,0,.05-.1.1l-.15.05a.1.1,0,0,0,.05.15c.2-.05.35-.1.61-.15l.66-.15a.1.1,0,0,0-.05-.15h-.15c-.15,0-.25-.05-.41-.3L16.2,3.95a1.91,1.91,0,0,1-.35-.56c-.05-.05-.05-.05-.1-.05a.75.75,0,0,1-.3.35,2.29,2.29,0,0,1,0,.61l-.1,1.16c-.05.35-.05.56-.1.76s-.1.25-.2.3l-.1.05C14.94,6.63,14.94,6.73,15,6.73ZM11.6,5a5.17,5.17,0,0,1,.2.76.1.1,0,0,0,.15-.05c0-.35,0-.56.3-.71l.25-.1c.1-.05.1-.05.15.05l.86,1.77c.2.35.15.41,0,.56l-.15.1c0,.05,0,.15.05.15l.71-.35c.2-.1.41-.2.66-.3a.51.51,0,0,0-.05-.15l-.15.05c-.2.05-.25.05-.41-.35l-.86-1.77c-.15-.05-.15-.1-.05-.15l.25-.1c.3-.15.46,0,.66.25.05,0,.15-.05.15-.1a2.41,2.41,0,0,1-.25-.71H14A0,0,0,0,0,14,3.9c0,.1-.05.15-.3.25l-1.52.71c-.3.15-.3.15-.41.1s-.1,0-.15.05ZM9.77,7.34a1.06,1.06,0,0,0,1.06.3c.3-.05.71-.1.91.2a.44.44,0,0,1-.1.66,1.13,1.13,0,0,1-1.06-.1c-.05,0-.15.05-.15.1A1.61,1.61,0,0,0,11,9a1.23,1.23,0,0,0,.71-.3,1,1,0,0,0,.41-1.42A1,1,0,0,0,11,6.94L10.68,7a.6.6,0,0,1-.61-.15.42.42,0,0,1,.1-.61.69.69,0,0,1,.81.1c.05,0,.15-.05.15-.1a1.83,1.83,0,0,0-.46-.46c-.05,0-.1.05-.15.05a1,1,0,0,0-.46.25A.85.85,0,0,0,9.77,7.34ZM6.33,10.08c.1.05.2.25.35.51l.61,1c.2.3.3.51.41.66a.3.3,0,0,1,0,.35v.1c0,.05.1.1.15.1a2.14,2.14,0,0,1,.25-.35,2.81,2.81,0,0,1,.3-.41c0-.05-.1-.1-.1-.1l-.1.1c-.1.1-.15.1-.15.1s-.05-.05-.1-.1l-.3-.46a.09.09,0,0,1,0-.15l.3-.41c.1-.1.1-.15.2-.1l.41.15a2,2,0,0,0,.3.1s.05.05,0,.15l-.05.15c0,.05.1.1.15.1.1-.15.2-.3.35-.51a3.86,3.86,0,0,0,.41-.56c0-.05-.1-.1-.1-.1l-.1.1c-.1.1-.25.1-.51,0L7.24,9.92c-.3-.1-.51-.15-.61-.2s-.1,0-.15.05C6.38,9.62,6.43,9.87,6.33,10.08ZM3.85,14.33a.1.1,0,0,0,.15.05l.05-.05c.1-.2.2-.15.56.05L6.08,15c.35.15.41.2.35.41l-.05.15a.1.1,0,0,0,.15.05c.1-.25.2-.46.3-.66s.2-.35.25-.51a2.46,2.46,0,0,0,.3-1.11,1.51,1.51,0,0,0-.86-1.32A1.4,1.4,0,0,0,5,12.3a2.76,2.76,0,0,0-.56.91A3.27,3.27,0,0,0,3.85,14.33Zm-.71,2.53c0,.05.1.05.15.05l.05-.1c.1-.2.1-.2.51-.1l1.62.41c.41.1.46.15.41.35v.15c0,.05.1.05.15.05.05-.25.1-.46.15-.66s.1-.41.15-.66c0-.05-.1-.05-.15-.05l-.05.1c-.1.2-.1.2-.51.1l-1.57-.46c-.41-.1-.46-.15-.41-.35v-.15c0-.05-.1-.05-.15-.05-.05.25-.1.46-.15.66A5.2,5.2,0,0,0,3.14,16.86ZM3,20.66v-.1c.05-.2.1-.2.56-.2l1.57.1c.41,0,.46.05.46.25v.1c0,.05.15.05.15,0v-.66c0-.2.05-.41.05-.66-.05-.05-.15-.05-.15,0l-.05.1c-.05.2-.1.2-.51.2l-.56-.05c-.1,0-.1,0-.1-.15a.28.28,0,0,1,.15-.25l.71-.3a.89.89,0,0,0,.51-.86v-.35c-.05,0-.1-.05-.1,0a.56.56,0,0,1-.15.3,5.12,5.12,0,0,1-1.16.66c-.05,0-.1,0-.1-.05a.72.72,0,0,0-.66-.51.82.82,0,0,0-.71.35,1.79,1.79,0,0,0-.2.86v1.11C2.84,20.71,2.94,20.71,3,20.66Zm1.82,3.75a1.48,1.48,0,0,0,1.27-1.77,1.51,1.51,0,0,0-1.82-1.37A1.48,1.48,0,0,0,3,23.09,1.56,1.56,0,0,0,4.81,24.41ZM4.66,27.8l-.05-.15c-.05-.2,0-.25.35-.41l1.57-.61c.41-.15.46-.15.56.05l.1.15c.05,0,.15,0,.15-.05a5.68,5.68,0,0,1-.25-.66l-.2-.56a8.11,8.11,0,0,1-.35-1,5.27,5.27,0,0,0-.76.1.1.1,0,0,0,.05.15c.61.05.66.15.81.56s.1.41.05.46-.15.15-.35.25l-1.47.61c-.41.15-.46.15-.56-.05l-.05-.1c-.05,0-.15,0-.15.05a3.1,3.1,0,0,1,.25.61c.1.2.15.41.25.61C4.56,27.85,4.66,27.85,4.66,27.8ZM8.71,29a4.22,4.22,0,0,1-.41-.61,6.46,6.46,0,0,1-.35-.61c-.05,0-.1.05-.15.1l.05.15c.1.2.05.2-.3.46l-.46.35c-.1.05-.1.05-.2-.05l-.2-.3c-.15-.2-.1-.25.05-.41l.1-.1c0-.05-.05-.15-.1-.15a2.83,2.83,0,0,1-.41.25,4.67,4.67,0,0,1-.41.25c0,.05.05.15.1.15l.1-.05c.2-.1.25-.05.41.15l.2.3c.05.1.05.1-.05.2L6,29.57c-.15.1-.15.1-.25,0l-.15-.35c-.1-.2-.15-.35-.1-.46s.1-.15.2-.3-.05-.15-.1-.15c-.25.15-.51.35-.61.41a3.56,3.56,0,0,1,.35.51l.51.81c.1.2.25.35.35.56.05.05.15-.05.15-.1l-.05-.1c-.1-.2-.05-.25.3-.46L8,29c.35-.2.41-.2.51-.05l.1.1C8.66,29.11,8.71,29.06,8.71,29Zm8.51,5.37a0,0,0,0,0-.05-.05,3.93,3.93,0,0,1-.46.05H16.1c-.05,0-.05.15-.05.15l.2.1c.2.1.2.15.1.46L16,36.61c-.1.35-.15.41-.35.35l-.2-.05c-.05,0-.05.15-.05.15a6.58,6.58,0,0,0,.76.15,7.83,7.83,0,0,1,.76.2.1.1,0,0,0,.05-.15l-.2-.05c-.2-.05-.25-.1-.15-.51l.46-1.82A3.15,3.15,0,0,1,17.22,34.38Zm2.13,1.67c.25-.1.56-.25.56-.61s-.3-.76-.86-.81a.88.88,0,0,0-1.06.76.72.72,0,0,0,.46.76,1,1,0,0,0-.71.76c-.05.51.41.81,1,.86.76.05,1.11-.3,1.16-.71A1,1,0,0,0,19.34,36.05Zm3.14.51a.92.92,0,0,0-.56-.76,3.78,3.78,0,0,0-1-.15c-.1,0-.15,0-.15-.15v-.1c0-.1.05-.15.1-.15l1.06-.2a.77.77,0,0,0,.2-.51c0-.05,0-.05-.05-.05l-1.27.25c-.15.05-.2.05-.2.15L20.41,36c0,.1,0,.15.15.15.51,0,1.22,0,1.27.71a.79.79,0,0,1-.41.66,2.39,2.39,0,0,1-1,.3c-.05.05-.05.2.05.2a2.87,2.87,0,0,0,1.27-.41A1,1,0,0,0,22.48,36.56Zm2.63.35-.2.05c-.25.05-.25,0-.35-.35l-.46-1.77a4.51,4.51,0,0,1-.1-.56c0-.05-.05-.05-.1-.05s-.2.15-.35.25a2.71,2.71,0,0,1-.56.25.1.1,0,0,0,.05.15h.2c.2,0,.25.05.3.35l.35,1.52c.1.35.05.41-.15.51l-.2.05a.1.1,0,0,0,.05.15c.15-.05.46-.1.76-.2a6.64,6.64,0,0,1,.76-.15C25.17,37.06,25.17,36.91,25.11,36.91Zm8.51-16.66A13.37,13.37,0,1,0,20.25,33.62,13.35,13.35,0,0,0,33.62,20.25Zm2,8.25a.11.11,0,0,0-.1-.1l-.1.1c-.1.1-.2.1-.41.1l-1.22-.15a.9.9,0,0,1-.51-.2l-.2-.1c-.35-.2-.35-.25-.3-.46l.05-.15c0-.05-.1-.1-.15-.1-.15.25-.25.41-.35.61s-.25.35-.41.61c0,.05.1.1.15.1l.1-.15c.15-.15.2-.15.51.05l.25.15a1.15,1.15,0,0,1,.41.46l.3.51a2.68,2.68,0,0,1,.3.66c.05.1,0,.15,0,.25l-.05.1a.1.1,0,0,0,.15.05,3,3,0,0,0,.2-.41c.1-.15.2-.25.3-.41s-.1-.1-.15-.1v.2c-.05.1-.1.1-.15.1a1.56,1.56,0,0,1-.3-.46,3.23,3.23,0,0,1-.41-.71c.1,0,.3.05.51.05l.51.1.3.05v.1l-.05.15c0,.05.1.1.15.1a2.47,2.47,0,0,1,.35-.56A2.75,2.75,0,0,1,35.65,28.51Zm1.42-3.19a5.9,5.9,0,0,1-.66-.41c-.05,0-.1.1-.1.15.25.25.41.41.25.71l-.1.25c-.05.1-.05.1-.15.05l-1.87-.71c-.41-.15-.41-.2-.35-.41l.05-.2a.1.1,0,0,0-.15-.05c-.1.3-.2.51-.25.71a5.68,5.68,0,0,1-.25.66c0,.05.1.05.15.05l.1-.15c.1-.2.15-.2.56-.05l1.87.71c.1.05.1.05.1.15l-.1.25a.56.56,0,0,1-.71.3.1.1,0,0,0-.05.15,4.6,4.6,0,0,1,.71.35l.05-.05v-.05c-.05-.05-.05-.15.05-.41l.61-1.57c.1-.3.15-.3.2-.3l.05-.05Zm.41-2.23c0-.05-.1-.05-.15-.05l-.05.1c-.1.2-.1.2-.51.15l-1.62-.35c-.41-.1-.46-.1-.46-.3v-.15c0-.05-.1-.05-.15-.05a3.48,3.48,0,0,0-.1.66c-.05.2-.1.41-.15.66,0,.05.1.05.15.05l.05-.1c.1-.2.1-.2.51-.15l1.62.35c.41.1.46.1.46.3v.15c0,.05.1.05.15.05a3.48,3.48,0,0,0,.1-.66C37.37,23.55,37.42,23.34,37.47,23.09Zm.15-1.22a1.8,1.8,0,0,0,.1-.51c.05-.66-.3-1.06-.81-1.06a1.09,1.09,0,0,0-.91.61c-.15.25-.41.61-.76.56a.41.41,0,0,1-.41-.51c0-.41.46-.66.76-.76.05-.05.05-.15,0-.15a1.62,1.62,0,0,0-.76.1,1.53,1.53,0,0,0-.2.76c-.05.66.3,1.16.86,1.16a.9.9,0,0,0,.91-.61l.15-.3c.15-.2.3-.41.56-.41a.45.45,0,0,1,.41.46c0,.3-.35.51-.61.56-.05.05-.05.15,0,.15a2.1,2.1,0,0,0,.66-.05C37.57,22,37.57,21.92,37.62,21.87ZM22.79,16.76h3.39l.66-1.06H23.44ZM22.84,18l-.25-.86h0l-.1.15h-.3l-.25.91-.15,2.38a5.17,5.17,0,0,0,1.16-.41Zm-5.32-2.23.76,1.11h4L23,15.75Zm3.95,2.43.25-.91h-3l.25.91Zm-.56.41-.05,2.13c.15,0,.3-.05.46-.05l.1-2h-.51Zm-1,0L20,20.71h.61l.05-2.13Zm-.3,0h-.51l.1,2a1.74,1.74,0,0,0,.46.05Zm-1-.41-.25-.91h-.3l-.1-.15h0l-.25.86-.1,2.18a5.17,5.17,0,0,0,1.16.41Zm-.91-1.42L17,15.7H13.62l.66,1.06ZM15.65,29.47h.2l-.3-11.14H15Zm1.11.76-.05-.35H15.65l-.05.35.61.46Zm-.71-.76h.25l.15-11.14h-.61Zm1.22-11.14h-.51l-.3,11.14h.2Zm.25-1.22H14.79l.25.81h2.23Zm3.39,14.28L20.86,31H19.75l-.15.41.66.51Zm-1.22-.76h.2l-.15-6.53a1.26,1.26,0,0,1-.41-.05Zm.41,0h.3l.1-6.53H20Zm1.06-6.58c-.1,0-.25.05-.41.05l-.2,6.53h.2Zm2.68,5.42h.2l-.3-11.14h-.51Zm1.06.76-.05-.35H23.8l-.05.35.61.46Zm-.71-.76h.25l.15-11.14H24Zm1.27-11.14H25l-.3,11.14h.2Zm.25-1.22H23l.25.81h2.23Zm-8.3,6a7.5,7.5,0,0,0,5.67,0l-.15-2.53a7.33,7.33,0,0,1-2.73.56,7.75,7.75,0,0,1-2.73-.56Zm3.44-8.71a2.81,2.81,0,0,0-.41.91h.46l.3-.46A2.83,2.83,0,0,0,22,13.11a1.15,1.15,0,0,0-.15-.66A6.23,6.23,0,0,1,20.86,14.43Zm.76-2.78C21.11,12.66,20,13.57,20,15v.25h.1a9.26,9.26,0,0,1,.71-1.42A2.8,2.8,0,0,0,21.62,11.65Zm-2,3.7h.15v-.15A3.56,3.56,0,0,1,20.51,13c.76-1.11,1-1.37,1-2.18A2.5,2.5,0,0,0,21,9.16a4.8,4.8,0,0,1-1.16,3,1.8,1.8,0,0,0-.3-1.72v.1c0,.71-.71,2-.71,2.68A4.36,4.36,0,0,0,19.6,15.34Zm-2.89-.81a4,4,0,0,0-.41.81h.41c.1-.15.2-.25.3-.41a2.37,2.37,0,0,0,.71-1.57,1.89,1.89,0,0,0-.1-.61A6.18,6.18,0,0,1,16.71,14.53Zm.76-2.48c-.46.86-1.52,1.72-1.52,3v.2h.1A7.56,7.56,0,0,1,16.71,14C17.17,13.37,17.62,12.76,17.47,12.05Zm-1.92,3.29h.15v-.15a3.16,3.16,0,0,1,.71-2c.71-1,1-1.22,1-1.92a2,2,0,0,0-.51-1.42,4,4,0,0,1-1.11,2.68A1.53,1.53,0,0,0,15.49,11v.1c0,.61-.66,1.82-.66,2.38A4,4,0,0,0,15.54,15.34Zm9.37-.81a4,4,0,0,0-.41.81h.41c.1-.15.2-.25.3-.41a2.37,2.37,0,0,0,.71-1.57,1.89,1.89,0,0,0-.1-.61A6.18,6.18,0,0,1,24.91,14.53Zm.71-2.48c-.46.86-1.57,1.72-1.57,3v.2h.1A7.56,7.56,0,0,1,24.81,14C25.37,13.37,25.82,12.76,25.62,12.05Zm-1.87,3.29h.15v-.15a3.16,3.16,0,0,1,.71-2c.71-1,1-1.22,1-1.92a2,2,0,0,0-.51-1.42A4,4,0,0,1,24,12.56,1.53,1.53,0,0,0,23.7,11v.1c0,.61-.66,1.82-.66,2.38A3.09,3.09,0,0,0,23.75,15.34Zm3.49,7.24c.05.05,0,.05,0,0s-.15,0-.2,0-.15,0-.2-.05v-.05h.05c.05,0,.05,0,.1-.1l.1-.66h0c-.05.1-.1.1-.15.2l-.2.25c-.05.1-.2.25-.25.35h-.05a.94.94,0,0,0-.1-.35v-.35c0-.05-.05-.2-.05-.25h0a2.19,2.19,0,0,1-.05.25c0,.1-.05.25-.05.35s0,.15.05.15h.05v.05a.19.19,0,0,1-.15-.05H26v-.05H26c.1,0,.1,0,.1-.1a3.23,3.23,0,0,0,.1-.35.86.86,0,0,0,.05-.35c0-.1,0-.1-.05-.15h-.05v-.05a8107650.58,8107650.58,0,0,1,.3.1.64.64,0,0,0,.05.3l.1.41c0,.05.05.1.05.15s.05-.1.1-.15l.2-.3c.05-.1.15-.2.2-.3a.19.19,0,0,1,.15.05h.15v.05h-.05c-.05,0-.1,0-.1.1a4,4,0,0,0-.1.71c-.1.2-.1.2,0,.2Zm.86-1a.58.58,0,0,0-.66.51.53.53,0,0,0,.51.61.55.55,0,0,0,.66-.51A.52.52,0,0,0,28.1,21.62Zm0,.1a.46.46,0,0,1,.3.56c-.05.35-.2.46-.41.41a.42.42,0,0,1-.3-.56C27.75,21.77,27.9,21.67,28.1,21.72Zm.71.86c0,.15,0,.2-.1.2h-.05v.05h.41v-.05H29c-.1,0-.1,0-.1-.2v-.2c0-.05,0-.05.05-.05s.05,0,.1.05a.39.39,0,0,1,.1.25.59.59,0,0,0,.35.25h.1v-.05a.16.16,0,0,1-.1-.05,1.55,1.55,0,0,1-.25-.46v-.05c.1-.05.2-.1.2-.25a.28.28,0,0,0-.15-.25c-.05-.05-.2-.05-.3-.05h-.35v.05h.05c.1,0,.1.05.05.2Zm.2-.71c0-.1,0-.1.1-.1s.2.1.2.25a.24.24,0,0,1-.25.25c-.1,0-.1,0-.1-.05Zm.86.1c0-.15-.05-.2-.1-.2h-.05v-.05h.2l.3-.05a.52.52,0,0,0,.2-.05c0,.05.05.15.05.2h-.05c0-.05-.05-.05-.1-.1h-.25c-.05,0-.05,0-.05.1l.05.25c0,.05,0,.05.05.05h.1c.15,0,.15,0,.15-.1V22h.05v.15a.19.19,0,0,0,.05.15h-.05v-.05c0-.05-.05-.05-.2-.05h-.1c-.05,0-.05,0-.05.05l.05.2c0,.1,0,.15.05.15s.05.05.2,0,.25-.05.3-.2h.05c0,.05,0,.2-.05.25a1.63,1.63,0,0,0-.41.05h-.2a.55.55,0,0,0-.25.05v-.05h.05c.05,0,.1,0,.05-.2Zm1,.61a.39.39,0,0,1-.1-.25s.05-.05.05,0a.6.6,0,0,0,.35.2c.1-.05.15-.1.15-.2s-.1-.15-.2-.2H31c-.15-.05-.25-.1-.3-.25s.05-.3.3-.41h.25c.05.05.05.15.1.2s-.05.05-.05,0a.23.23,0,0,0-.25-.15.19.19,0,0,0-.15.2.23.23,0,0,0,.2.15l.1.05c.1.05.25.1.3.25s-.05.35-.3.41A.75.75,0,0,1,30.89,22.58ZM10,22.28a1,1,0,0,0-.2.41h-.1c0-.05-.05-.15-.05-.2l-.2-.71c-.05-.1-.05-.15-.1-.15H9.27v-.05a.3.3,0,0,1,.2.05h.2v.05h-.1a.8.8,0,0,0,.05.2l.1.3a.52.52,0,0,0,.05.2c.1-.2.25-.41.35-.61.05-.05.05-.1,0-.1h-.05v-.05h.3v.05h-.05c-.05,0-.1,0-.1.05s-.1.2-.2.35Zm.86.3c0,.15,0,.2.1.2H11v.05h-.41v-.05h.05c.1,0,.1,0,.1-.2l.05-.61c0-.15,0-.2-.1-.2h-.05v-.05H11v.05H11c-.1,0-.1,0-.1.2Zm.51,0c0,.15,0,.2-.1.2h-.05v.05h.41v-.05h-.05c-.1,0-.1,0-.1-.2v-.2c0-.05,0-.05.05-.05s.05,0,.1.05.1.15.15.2a.38.38,0,0,0,.35.2h.1v-.05a.16.16,0,0,1-.1-.05c-.1-.05-.15-.2-.3-.41v-.05c.1-.05.2-.1.2-.25a.28.28,0,0,0-.15-.25c-.05-.05-.2-.05-.3-.05a.75.75,0,0,0-.35.05v.05h.05c.1,0,.1,0,.1.2Zm.2-.76c0-.1,0-.1.1-.1a.24.24,0,0,1,.25.25c0,.15-.05.25-.2.25s-.1,0-.1-.05Zm.91.05c0-.15-.05-.2-.1-.2H12.3v-.05h.2l.3-.05a.52.52,0,0,0,.2-.05c0,.05.05.15.05.2H13a.39.39,0,0,0-.1-.15h-.25c-.05,0-.05,0-.05.1l.05.25c0,.05,0,.05.05.05h.1c.15,0,.15,0,.15-.1v-.05H13V22a.19.19,0,0,0,.05.15H13v-.05C13,22,13,22,12.81,22h-.1c-.05,0-.05,0-.05.05l.05.2c0,.1,0,.15.05.15s.05.05.2,0,.25-.1.25-.2h.05c0,.05,0,.2-.05.25a1.63,1.63,0,0,0-.41.05h-.2a.55.55,0,0,0-.25.05v-.05h.05c.05,0,.1,0,.05-.2Zm1.06.66c-.05-.05-.05-.15-.1-.25h.05c.05.1.15.25.3.2s.2-.1.15-.2-.05-.15-.2-.2h-.05a.32.32,0,0,1-.25-.3.37.37,0,0,1,.3-.35H14c0,.05.05.15.05.2H14c-.05-.1-.1-.2-.25-.15s-.15.1-.15.2.05.15.2.15l.1.05c.1.05.25.1.25.3s-.1.35-.35.35S13.52,22.58,13.52,22.53Zm4.76-.25c.05,0,.05,0,.05.05v.25c0,.05,0,.1-.05.05h-.05v.05c.05,0,.15.05.2.05s.15.05.2.05v-.05h0c-.1-.05-.1-.05-.1-.15l-.05-.71v-.25h0a.22.22,0,0,1-.15.05c0,.05-.05.05-.05.1l-.35.51q-.08.15-.15.15c-.05.05-.05.05-.1.05h-.05v.05a.19.19,0,0,1,.15.05c.05,0,.1.05.15.05v-.05h-.05c-.05,0-.05-.05,0-.1l.1-.15c.05-.05,0-.05.05-.05Zm-.15-.1c-.05,0-.05,0,0-.05l.1-.15c.05-.05.05-.1.1-.1h0v.35c0,.05,0,.05-.05.05Zm.81.46c0,.15-.05.15-.1.15h-.05v.05a.3.3,0,0,1,.2.05.3.3,0,0,1,.2.05v-.05h-.05c-.05,0-.1-.05-.05-.2l.05-.2c0-.05,0-.05.05-.05s.05,0,.1.05.05.15.1.25a.32.32,0,0,0,.3.25h.1v-.05a.16.16,0,0,1-.1-.05,2.09,2.09,0,0,1-.2-.46v-.05a.34.34,0,0,0,.25-.2.39.39,0,0,0-.1-.25.43.43,0,0,0-.3-.1c-.15,0-.25-.05-.35-.05v.05H19c.05,0,.05.05.05.2Zm.3-.66c0-.05,0-.1.1-.05s.2.15.2.25-.1.2-.25.2-.1,0-.05-.05ZM20.3,22c0-.05,0-.05-.05-.05h-.1c-.15,0-.2,0-.25.15h-.05a2.19,2.19,0,0,1,.05-.25h0c0,.05.05.05.15.05l.66-.05c.1,0,.1,0,.1-.05h0v.25h-.05c-.05-.15-.05-.15-.25-.15h-.1c-.05,0-.05,0-.05.05l.05.71c0,.15,0,.2.1.2h.05v.05h-.51v-.05h.05c.1,0,.1,0,.1-.2Zm.91.05c-.05-.15-.05-.15-.15-.15H21v-.05a.3.3,0,0,0,.2-.05l.3-.05a.52.52,0,0,0,.2-.05c0,.05.05.15.05.2h-.05c-.05-.1-.1-.1-.15-.15h-.25c-.05,0-.05,0-.05.1l.05.25c0,.05,0,.05.05.05h.1c.15-.05.15-.05.15-.1V22h.05a.19.19,0,0,0,.05.15c0,.05.05.1.05.15h-.05v-.05c0-.05-.05-.05-.2-.05h-.1c-.05,0-.05,0-.05.05l.05.2a.22.22,0,0,0,.05.15h.2c.2-.05.25-.1.25-.25H22v.25a2.73,2.73,0,0,1-.41.05l-.2.05a2.19,2.19,0,0,1-.25.05v-.05h.05c.05,0,.1-.05.05-.2Zm1,.56a.39.39,0,0,1-.1-.25s.05-.05.05,0a.6.6,0,0,0,.35.2c.1-.05.15-.1.15-.2s-.1-.15-.2-.2h-.1c-.15-.05-.25-.1-.3-.25s.05-.3.25-.41h.2c.05.05.05.15.1.2s-.05.05-.05,0a.28.28,0,0,0-.25-.15.19.19,0,0,0-.15.2c0,.05.1.1.2.15l.1.05c.1.05.25.1.3.25s-.05.35-.3.41C22.38,22.68,22.28,22.63,22.23,22.63Zm-7.44-2.13a18.26,18.26,0,0,1-3.44.51,10.38,10.38,0,0,1-2.89-.41,13,13,0,0,0,.41,2.23,2.77,2.77,0,0,0,2.18.66A22.27,22.27,0,0,0,14.89,23Zm-4.3-1.62c-.35.56-1.22.71-1.67.86a.43.43,0,0,0-.35.41,7.93,7.93,0,0,0,3,.46,4.14,4.14,0,0,0,1.32-3.34,6.51,6.51,0,0,1-1.06,1.22,12.47,12.47,0,0,0-.86-1.37A4.8,4.8,0,0,1,10.48,18.89ZM25.57,23a22.27,22.27,0,0,0,3.85.46,2.77,2.77,0,0,0,2.18-.66A15,15,0,0,0,32,20.61a9.06,9.06,0,0,1-2.89.41,18.26,18.26,0,0,1-3.44-.51Zm-6.43-7.7a4.42,4.42,0,0,1-.71-2.13c0-.51.71-2.08.71-2.78A5.67,5.67,0,0,0,19,9.32,4,4,0,0,1,20.05,11a3.29,3.29,0,0,0,.61-2,2.86,2.86,0,0,0-.3-1.22,4.08,4.08,0,0,1,1.42,2.94,2.54,2.54,0,0,1-.1.61,2.9,2.9,0,0,1,.51,1.82,3.27,3.27,0,0,1-.91,2.08h2a3.65,3.65,0,0,1-.66-1.87c0-.46.66-1.87.66-2.48,0-.25-.05-.51-.1-1a3.62,3.62,0,0,1,1,1.57,3,3,0,0,0,.56-1.72,2.72,2.72,0,0,0-.25-1.06,3.46,3.46,0,0,1,1.37,2.63,1.5,1.5,0,0,1-.1.51,2.79,2.79,0,0,1,.51,1.62,3,3,0,0,1-.86,1.87h2.23l-1.16,1.82h-.25l-.25.86-.1,2.13c1,.2,1.87.35,2.68.46a4.1,4.1,0,0,1-.81-4.46,3.61,3.61,0,0,0,1,1.67A15.81,15.81,0,0,1,30,16.1a6.08,6.08,0,0,0,.51,2.73c.56.56,1.37.41,1.82.86s.1,2-.25,3.39a3.08,3.08,0,0,1-2.58.91,22.88,22.88,0,0,1-3.9-.46l-.35,6.23.15.66-1,.81-1-.81.15-.66-.35-6.13a8.75,8.75,0,0,1-1.57.41l-.35,6.89.15.71-1.16.81-1.11-.86.15-.71L18.94,24a10,10,0,0,1-1.57-.41L17,29.72l.15.66-1,.81-1-.81.15-.66-.35-6.23A22.88,22.88,0,0,1,11,24,3.08,3.08,0,0,1,8.46,23c-.35-1.42-.71-2.94-.25-3.39s1.27-.35,1.82-.86a6.08,6.08,0,0,0,.51-2.73,15.81,15.81,0,0,1,1.27,1.77,3.61,3.61,0,0,0,1-1.67A4,4,0,0,1,12,20.61a21.26,21.26,0,0,0,2.68-.46L14.58,18l-.25-.86h-.25l-1.16-1.82h2.18a3.65,3.65,0,0,1-.66-1.87c0-.46.66-1.87.66-2.48,0-.25-.05-.51-.1-1a3.62,3.62,0,0,1,1,1.57,3,3,0,0,0,.56-1.72,2.72,2.72,0,0,0-.25-1.06,3.46,3.46,0,0,1,1.37,2.63,1.5,1.5,0,0,1-.1.51,2.79,2.79,0,0,1,.51,1.62,3,3,0,0,1-.86,1.87h1.92Zm10.48,1.77a12.47,12.47,0,0,0-.86,1.37,6.71,6.71,0,0,1-1.06-1.22A4.14,4.14,0,0,0,29,20.61a7.78,7.78,0,0,0,3-.46c0-.3-.2-.35-.35-.41-.51-.15-1.32-.3-1.67-.86A4.8,4.8,0,0,1,29.62,17.11Z" fill="#fff" opacity="0.4"/></svg>