<svg xmlns="http://www.w3.org/2000/svg" viewBox="0 0 21.3 23"><path d="M9.5 8.2c-.3.1-.7.2-1 .3.1.3.2.7.2 1.1 0 2.2-1.3 3.8-3.5 4.2-.6.1-1 .4-1 1.1 0 2 5.2.6 5.2 4.2 0 2.9-2 3.9-4.7 3.9-2.2 0-4.7-.7-4.7-3.4 0-1.5.9-2.4 2.3-2.9v-.1c-.6-.4-.9-.9-.9-1.6 0-.7.1-1.5.8-1.8v-.1C1 12.8.1 11 .1 9.7.1 7.3 2 5.5 4.3 5.5c.8 0 1.6.2 2.3.6 1 0 1.9-.3 2.8-.6v2.7zm-4.9 9.9c-.9 0-2 .2-2 1.3 0 1.2 1.3 1.3 2.2 1.3.9 0 1.9-.2 1.9-1.3.1-1.1-1.2-1.3-2.1-1.3zM4.5 7.9c-1.2 0-1.6.8-1.6 1.9 0 1.1.5 1.7 1.6 1.7S6 10.8 6 9.7c0-.9-.5-1.8-1.5-1.8zm7.6-4.2c-1 0-1.8-.9-1.8-1.9 0-1 .7-1.9 1.8-1.9 1 0 1.7.9 1.7 1.9.1 1.1-.7 1.9-1.7 1.9zm-1.4 13.2c.1-.6.1-1.1.1-1.7V7.4c0-.6 0-1.1-.1-1.6h2.8c-.1.5-.1 1.1-.1 1.6v7.9c0 .6 0 1.1.1 1.7h-2.8zm10.6-.3c-.7.4-1.5.5-2.2.5-2.7 0-3.1-2.2-3.1-4.4V8.1h-.5c-.3 0-.5 0-.8.1V5.7H16v-1c0-.4 0-.8-.1-1.1h2.9c-.1.7-.1 1.4-.1 2.1h2.2v2.4c-.4 0-.7-.1-1.1-.1h-1.1v4.7c0 .8.2 1.7 1.1 1.7.5 0 1-.1 1.4-.4v2.6z"/></svg>