<svg xmlns="http://www.w3.org/2000/svg" xmlns:xlink="http://www.w3.org/1999/xlink" viewBox="0 0 59.7 23"><path fill-rule="evenodd" clip-rule="evenodd" fill="#FFF" d="M12.8 12.2c0-.2-.1-.5-.3-.6L6.8 8.3c-.1 0-.3-.1-.4-.1h-.1c-.1 0-.2 0-.3.1L.3 11.6c-.2.1-.3.4-.3.6v8.9c0 .1.1.2.2.3.1.1.2.1.3 0l3.4-1.9c.2-.1.3-.4.3-.6v-4.1c0-.2.1-.5.3-.6l1.4-.8c.1-.1.2-.1.3-.1.1 0 .2 0 .3.1l1.4.8c.2.1.3.4.3.6v4.1c0 .2.1.5.3.6l3.4 1.9c.1.1.2.1.3 0 .1-.1.2-.2.2-.3l.4-8.9zM40.3 0H40c-.1.1-.2.2-.2.3v8.8c0 .1 0 .2-.1.2h-.2L38 8.5c-.2-.1-.5-.1-.7 0l-5.7 3.3c-.2.1-.3.4-.3.6V19c0 .2.1.5.3.6l5.7 3.3c.2.1.5.1.7 0l5.7-3.3c.2-.1.3-.4.3-.6V2.5c0-.3-.1-.5-.4-.6L40.3 0zm-.5 16.8c0 .1 0 .1-.1.1l-2 1.1h-.2l-2-1.1c-.1 0-.1-.1-.1-.1v-2.3c0-.1 0-.1.1-.1l2-1.1h.2l2 1.1c.1 0 .1.1.1.1v2.3z"/><g fill-rule="evenodd" clip-rule="evenodd" fill="#FFF"><path d="M59.4 14.5c.2-.1.3-.4.3-.6v-1.6c0-.2-.1-.5-.3-.6l-5.7-3.3c-.2-.1-.5-.1-.7 0l-5.7 3.3c-.2.1-.3.4-.3.6v6.6c0 .2.1.5.3.6l5.7 3.2c.2.1.5.1.7 0l3.4-1.9c.1-.1.2-.2.2-.3 0-.1-.1-.2-.2-.3l-5.8-3.3c-.1-.1-.2-.2-.2-.3v-2.1c0-.1.1-.2.2-.3l1.8-1c.1-.1.2-.1.3 0l1.8 1c.1.1.2.2.2.3v1.6c0 .1.1.2.2.3.1.1.2.1.3 0l3.5-1.9z"/><path d="M53.3 14.2h.1l1.1.6.1.1v1.3s0 .1-.1.1l-1.1.7h-.1l-1.1-.6-.1-.1V15s0-.1.1-.1l1.1-.7z"/></g><defs><path id="a" d="M22.4 8.4c-.2-.1-.5-.1-.7 0L16 11.7c-.2.1-.3.3-.3.6v6.6c0 .2.1.5.3.6l5.7 3.3c.2.1.5.1.7 0l5.7-3.3c.2-.1.3-.3.3-.6v-6.6c0-.2-.1-.5-.3-.6l-5.7-3.3z"/></defs><use xlink:href="#a" overflow="visible" fill-rule="evenodd" clip-rule="evenodd" fill="#FFF"/><clipPath id="b"><use xlink:href="#a" overflow="visible"/></clipPath><g clip-path="url(#b)" fill="#FFF"><path d="M21.7 8.4L16 11.7c-.2.1-.4.3-.4.6v6.6c0 .2.1.3.2.4l6.4-11c-.2 0-.4.1-.5.1zM22.2 22.8c.1 0 .1 0 .2-.1l5.7-3.3c.2-.1.4-.3.4-.6v-6.6c0-.2-.1-.4-.2-.5l-6.1 11.1z"/><path d="M28.1 11.7l-5.7-3.3c-.1 0-.1-.1-.2-.1l-6.4 11 .2.2 5.7 3.3c.2.1.4.1.5.1l6-11c0-.1-.1-.1-.1-.2z"/></g><g clip-path="url(#b)" fill="#FFF"><path d="M28.4 18.9v-6.6c0-.2-.1-.5-.4-.6l-5.7-3.3c-.1 0-.1-.1-.2-.1L28.4 19v-.1zM16 11.7c-.2.1-.4.3-.4.6v6.6c0 .2.2.5.4.6l5.7 3.3c.1.1.3.1.4.1L16 11.7zM21.5 7.2l-.1.1h.1"/><path d="M28.1 19.5c.2-.1.3-.3.3-.4L22.2 8.4c-.2 0-.3 0-.5.1L16 11.7l6.1 11.1c.1 0 .2 0 .3-.1l5.7-3.2zM28.6 19.4v-.1.1"/><path d="M28.1 19.5l-5.7 3.3c-.1 0-.2.1-.3.1l.1.2 6.3-3.7v-.1l-.2-.3c.1.2-.1.4-.2.5z"/><path d="M28.1 19.5l-5.7 3.3c-.1 0-.2.1-.3.1l.1.2 6.3-3.7v-.1l-.2-.3c.1.2-.1.4-.2.5z"/></g></svg>