<svg data-name="Layer 1" xmlns="http://www.w3.org/2000/svg" viewBox="0 0 86.38 35.11"><title>philadelphia</title><path d="M9.69 30.79a1.13 1.13 0 0 0-1.08 1.94l-.26.52a1.2 1.2 0 0 0 .44.24.94.94 0 0 0 .47.05l.09-.54a1.13 1.13 0 0 0 .34-2.2M28.81 6.85c.27-1-.35-1.13-.57-1.19l-6.41-1.8c-.5-.14-.33-1.27-.78-1.39L16 1.06c-.46-.13-.9.92-1.39.79L8.18.05C8 0 7.34-.18 7.08.78L5.62 6a.11.11 0 0 1-.15.08L5 6c-.15 0-.3 0-.41.23a5.4 5.4 0 0 0-.46 1.18 7.82 7.82 0 0 0-.27 1.42c0 .19 0 .35.23.41l4.11 1.15A.6.6 0 0 0 9 10a11.75 11.75 0 0 1 1.93-2.92c.5-.28 3.4.2 3.4.2a3.21 3.21 0 0 0-.2.62c-.11.46.15 1.58-.12 1.73-1.44.81-4-.42-4.86 2C7 17.73 5.41 20.34 3 21.93c1.13 1.32 3.79 2.72 7.63 3.89a1.83 1.83 0 0 1 0-.36 12 12 0 0 0-.09-1.4c-.09-.85-.14-1.26-.16-1.68a4.58 4.58 0 0 1 .24-1.53l.08-.28c.29-1 1.2-3.7 1.57-4.47.06-.14.14-.11.16-.11s.1 0 .09.18c-.1.84-.79 3.63-1.08 4.61l-.08.28a3.73 3.73 0 0 0-.16 1.38c0 .36.1.8.2 1.66a12.8 12.8 0 0 1 .1 1.44 1.84 1.84 0 0 0 .1.54h.07c4.39 1.23 7.77 1.49 9.56.9C20 24.4 20 21.35 21.29 15c.52-2.5-2.31-2.78-3.12-4.22-.15-.26.66-1.09.81-1.54a2.58 2.58 0 0 0 .14-.63s2.88 1.13 3.14 1.63a11.7 11.7 0 0 1 .13 3.49.6.6 0 0 0 .48.72L27 15.6c.25.07.32-.06.41-.23a7.78 7.78 0 0 0 .5-1.37 5.4 5.4 0 0 0 .22-1.25c0-.25-.08-.37-.23-.41l-.46-.13a.11.11 0 0 1-.08-.14M26.08 30v2.87H24.7v-7.78l1.61-.09a5 5 0 0 1 2.7.57 2 2 0 0 1 .85 1.77q0 2.68-3.16 2.68zm0-3.72v2.49h.55A2.38 2.38 0 0 0 28 28.5a1.19 1.19 0 0 0 .44-1q0-1.21-2-1.21zM34.69 32.87v-3.51a1.12 1.12 0 0 0-.33-.85 1.19 1.19 0 0 0-.86-.32 1.41 1.41 0 0 0-.66.18 1.22 1.22 0 0 0-.48.41v4.09H31v-7.81l1.35-.32v2.8a2 2 0 0 1 1.42-.47 2.24 2.24 0 0 1 1.66.59 2.3 2.3 0 0 1 .59 1.7v3.51zM37.82 32.87v-4.6h-.73v-1.09h2.07v5.69zM38.5 25a.77.77 0 1 1-.54.23.74.74 0 0 1 .54-.23zM40.94 25.06l1.33-.32v6.4q0 1.05.63 1.25a1.09 1.09 0 0 1-1.05.58q-.9 0-.9-1.25zM47.09 32.3a1.29 1.29 0 0 1-.63.49 2.4 2.4 0 0 1-.94.19 2.12 2.12 0 0 1-1.45-.46 1.64 1.64 0 0 1-.53-1.31 1.83 1.83 0 0 1 .74-1.55 3.45 3.45 0 0 1 2.11-.56 2.32 2.32 0 0 1 .55.08q0-1-1.27-1a2.82 2.82 0 0 0-1.25.25l-.29-1a3.73 3.73 0 0 1 1.63-.33 2.65 2.65 0 0 1 1.91.59 3.15 3.15 0 0 1 .61 2.25v1.22q0 1.14.46 1.43a.72.72 0 0 1-.37.35 1.48 1.48 0 0 1-.46.07.74.74 0 0 1-.52-.21 1.08 1.08 0 0 1-.3-.5zM47 30.19a2.86 2.86 0 0 0-.51-.07q-1.57 0-1.57 1 0 .77.89.77a1.06 1.06 0 0 0 1.2-1.2zM53.39 32.87v-.35a1.35 1.35 0 0 1-.56.32A2.48 2.48 0 0 1 52 33a2.4 2.4 0 0 1-1.87-.76 3 3 0 0 1-.68-2.11 3.11 3.11 0 0 1 .78-2.2 2.56 2.56 0 0 1 2-.85 2.6 2.6 0 0 1 1.18.27v-2.29l1.33-.32v8.13zm0-4.33a1.4 1.4 0 0 0-.89-.34 1.55 1.55 0 0 0-1.23.49 2 2 0 0 0-.43 1.4q0 1.78 1.71 1.78a1.29 1.29 0 0 0 .47-.11.86.86 0 0 0 .36-.23zM61.13 30.43h-4.07a1.44 1.44 0 0 0 .47 1.06 1.7 1.7 0 0 0 1.16.38 1.87 1.87 0 0 0 1.38-.47l.52 1a3.28 3.28 0 0 1-2.09.57 2.77 2.77 0 0 1-2.06-.76 2.89 2.89 0 0 1-.76-2.13 3 3 0 0 1 .83-2.18 2.92 2.92 0 0 1 4-.1 2.53 2.53 0 0 1 .75 1.88 3.71 3.71 0 0 1-.13.75zm-4-1h2.8a1.25 1.25 0 0 0-1.38-1.25 1.37 1.37 0 0 0-1.44 1.25zM62.53 25.06l1.33-.32v6.4q0 1.05.63 1.25a1.09 1.09 0 0 1-1.05.58q-.9 0-.9-1.25zM66.74 32.73v2.38h-1.33v-7.93h1.33v.38a1.69 1.69 0 0 1 1.26-.49q2.72 0 2.72 3a2.92 2.92 0 0 1-.75 2.15 2.77 2.77 0 0 1-2.05.76 2.59 2.59 0 0 1-1.18-.25zm0-4.16v3a1.3 1.3 0 0 0 .85.29 1.72 1.72 0 0 0 1.32-.44A2 2 0 0 0 69.3 30a2 2 0 0 0-.4-1.42 1.78 1.78 0 0 0-1.32-.41 1.17 1.17 0 0 0-.84.4zM75.55 32.87v-3.51a1.12 1.12 0 0 0-.33-.85 1.19 1.19 0 0 0-.86-.32 1.41 1.41 0 0 0-.66.18 1.22 1.22 0 0 0-.48.41v4.09h-1.36v-7.81l1.35-.32v2.8a2 2 0 0 1 1.42-.47 2.24 2.24 0 0 1 1.66.59 2.3 2.3 0 0 1 .59 1.7v3.51zM78.67 32.87v-4.6h-.73v-1.09H80v5.69zm.69-7.9a.77.77 0 1 1-.54.23.74.74 0 0 1 .54-.2zM84.73 32.3a1.29 1.29 0 0 1-.63.49 2.4 2.4 0 0 1-.94.19 2.12 2.12 0 0 1-1.45-.46 1.64 1.64 0 0 1-.53-1.31 1.83 1.83 0 0 1 .74-1.55 3.45 3.45 0 0 1 2.08-.55 2.32 2.32 0 0 1 .55.08q0-1-1.27-1a2.82 2.82 0 0 0-1.25.25l-.29-1a3.73 3.73 0 0 1 1.63-.33 2.65 2.65 0 0 1 1.91.59 3.15 3.15 0 0 1 .61 2.25v1.22q0 1.14.46 1.43a.71.71 0 0 1-.37.35 1.47 1.47 0 0 1-.46.07.74.74 0 0 1-.52-.21 1.09 1.09 0 0 1-.27-.51zm-.13-2.11a2.86 2.86 0 0 0-.51-.07q-1.57 0-1.57 1 0 .77.89.77a1.06 1.06 0 0 0 1.2-1.2z" fill="#fff"/><path d="M28 19l-.34.67a1.2 1.2 0 0 0-.88-.27 1.13 1.13 0 0 0-.94.48 2 2 0 0 0-.37 1.22 1.84 1.84 0 0 0 .34 1.17 1.1 1.1 0 0 0 .91.43 1.22 1.22 0 0 0 1-.46l.38.66a1.91 1.91 0 0 1-1.46.53 1.84 1.84 0 0 1-1.49-.63 2.6 2.6 0 0 1-.52-1.8 2.51 2.51 0 0 1 .59-1.7 1.91 1.91 0 0 1 1.51-.68A2.2 2.2 0 0 1 28 19zM28.94 23.3v-2.72h-.43v-.64h1.22v3.36zm.4-4.65a.45.45 0 1 1-.32.13.44.44 0 0 1 .32-.14zM30.76 20.57h-.39v-.63h.39v-.68l.78-.29v1h.92v.63h-.92V22a.87.87 0 0 0 .11.51.47.47 0 0 0 .39.15 1 1 0 0 0 .53-.15v.72a2.49 2.49 0 0 1-.78.09 1 1 0 0 1-.77-.28 1.12 1.12 0 0 1-.27-.81zM34.67 23.83a1.08 1.08 0 0 1-.54.56 2 2 0 0 1-1 .22v-.69q.91 0 .91-.45a2.8 2.8 0 0 0-.25-.92l-1-2.6h.81l.91 2.32.82-2.32h.81zM37.46 21.61a1.77 1.77 0 0 1 .44-1.25 1.7 1.7 0 0 1 2.36 0 2.11 2.11 0 0 1 0 2.54 1.71 1.71 0 0 1-2.37 0 1.84 1.84 0 0 1-.43-1.29zm.81 0q0 1.11.8 1.11a.69.69 0 0 0 .58-.29 1.35 1.35 0 0 0 .21-.82q0-1.09-.8-1.09a.69.69 0 0 0-.58.29 1.32 1.32 0 0 0-.21.8zM43.18 19.28a1.39 1.39 0 0 0-.39-.08.47.47 0 0 0-.38.19.72.72 0 0 0-.15.47v.08h.7v.65h-.68v2.71h-.78v-2.71H41v-.65h.49a1.53 1.53 0 0 1 .37-1 1.12 1.12 0 0 1 .88-.38 2.41 2.41 0 0 1 .68.12zM11.83 28.38c.08.85.25 2.17.36 2.67 5.27 1.39 8.89.71 9.73.13.63-.43 1-.65.19-2.41-1.91.79-5.87.73-10.28-.39M1.32 23c-1.67 1.1-1.45 1.7-.99 2.3 1.13 1.46 4.18 3.65 9.74 5.2l1.26.34c-.09-.44-.29-1.85-.38-2.7-4.64-1.31-8.33-3.43-9.63-5.14" fill="#fff"/></svg>