<svg xmlns="http://www.w3.org/2000/svg" viewBox="0 0 30.7 23"><path d="M26.4 13.2c-1.1 0-2 .3-2.8.6-.3-.6-.6-1.1-.6-1.4-.1-.4-.1-.7-.1-1.2.1-.5.4-1.2.4-1.3s-.1-.3-.7-.3-1.1.1-1.2.3c-.1.2-.2.5-.3.9-.1.6-1.2 2.6-1.9 3.6-.2-.4-.4-.8-.4-1.1-.1-.4-.1-.7-.1-1.2.1-.5.4-1.2.4-1.3 0-.1-.1-.3-.7-.3s-1.1.1-1.2.3c-.1.2-.1.5-.3.9-.1.4-1.6 3.7-2 4.6l-.5 1c-.1.2-.2.3-.2.3-.1.2-.2.3-.2.3s-.1-.4 0-1c.2-1.2.8-3 .8-3s.1-.3-.3-.5-.6.1-.6.1l-.1.1s.5-2-.9-2c-.9 0-2.1 1-2.7 1.8-.4.2-1.2.7-2.1 1.1-.3.2-.7.4-1 .5l-.1-.1C5.4 13.3 2.2 12 2.3 9.5c0-.9.4-3.2 6.1-6.1 4.7-2.3 8.5-1.7 9.1-.3.9 2-2 5.8-6.9 6.4-1.8.2-2.8-.5-3.1-.8-.2-.3-.2-.3-.3-.2-.2.1-.1.3 0 .5.1.4.7 1.1 1.8 1.4.9.3 3.1.5 5.7-.6 3-1.1 5.3-4.3 4.6-7C18.5.1 14-.8 9.8.7 7.3 1.6 4.5 3 2.6 4.9.2 7.1-.1 9 0 9.8c.5 2.8 4.4 4.7 6 6-.1 0-.1.1-.2.1-.8.4-3.7 1.9-4.5 3.6-.8 1.9.1 3.2.8 3.4 2 .6 4.1-.4 5.2-2.1 1.1-1.6 1-3.8.5-4.8.2-.1.4-.2.6-.4.4-.2.8-.5 1.1-.6-.2.5-.3 1.1-.4 2-.1 1.1.3 2.4.9 3 .2.2.5.2.7.2.7 0 1-.5 1.3-1.2.4-.8.8-1.7.8-1.7s-.5 2.5.8 2.5c.4 0 .9-.6 1.1-.9v-.1c0-.1.1-.1.1-.1.2-.3.6-1 1.2-2.2.8-1.5 1.5-3.4 1.5-3.4s.1.5.3 1.2c.1.5.4 1 .6 1.4-.2.2-.3.4-.3.4-.1.2-.3.4-.5.6-.6.7-1.3 1.6-1.4 1.8-.1.3-.1.5.1.7.2.1.5.1.8.1.5 0 .9-.2 1.1-.3.3-.1.6-.3 1-.5.6-.4 1-1.1.9-1.9 0-.5-.2-.9-.4-1.3.1-.1.1-.2.2-.2.9-1.4 1.7-2.9 1.7-2.9s.1.5.3 1.2c.1.4.3.8.5 1.2-.9.7-1.4 1.6-1.6 2.1-.4 1-.1 1.5.4 1.6.2 0 .6-.1.8-.2.3-.1.7-.3 1-.5.6-.4 1.2-1.1 1.1-1.9 0-.4-.1-.8-.3-1.1.8-.3 1.7-.5 3-.3 2.7.3 3.2 2 3.1 2.7-.1.7-.7 1.1-.8 1.2-.2.1-.2.2-.2.2 0 .1.1.1.3.1.2 0 1.4-.6 1.5-1.9 0-1.6-1.5-3.4-4.3-3.4zm-20.6 7c-.9 1-2.1 1.3-2.6 1-.6-.3-.3-1.8.7-2.8.7-.6 1.5-1.2 2.1-1.6.1-.1.3-.2.5-.3h.1l.1-.1c.4 1.5.1 2.7-.9 3.8zm6.5-4.4c-.3.8-1 2.7-1.3 2.6-.3-.1-.5-1.5-.1-3 .2-.7.7-1.6 1-1.9.5-.5 1-.7 1.1-.5.2.2-.5 2.3-.7 2.8zm5.3 2.5c-.1.1-.3.1-.3.1l.1-.1s.7-.7.9-1c.2-.2.3-.4.5-.7v.1c0 .8-.8 1.4-1.2 1.6zm4.1-.9c-.1-.1-.1-.3.2-1 .1-.3.4-.7.9-1.2.1.2.1.4.1.5 0 1.1-.7 1.5-1.2 1.7z"/></svg>