<svg data-name="Layer 1" xmlns="http://www.w3.org/2000/svg" viewBox="0 0 103.33 26.41"><title>solarcity</title><g opacity=".4" fill="#fff"><path d="M33.45 1.15a.8.8 0 0 0-.78-.78h-2.35v20.87h3.13zM40.55 5.79a10.85 10.85 0 0 0-4.59 1v2.76a11.39 11.39 0 0 1 4.38-.94c1.51 0 3.44.47 3.44 3h-3.23c-3.34 0-5.85 1.62-5.85 5a4.75 4.75 0 0 0 5.06 5 5.94 5.94 0 0 0 4-1.3v1h3.13v-9.67c-.03-4.18-2.58-5.85-6.34-5.85zm3.18 11.43a5.47 5.47 0 0 1-3.5 1.57 2.06 2.06 0 0 1-2.3-2.19c0-.84.26-2.19 2.71-2.19h3.08v2.82zM29.12 13.67c0-3.86-2.12-7.88-7.12-7.88s-7.15 4-7.15 7.88S17 21.55 22 21.55s7.12-4.01 7.12-7.88zm-11.06 0c0-3.24 1.62-5.11 3.91-5.11s3.91 1.88 3.91 5.11-1.56 5.07-3.88 5.07-3.94-1.83-3.94-5.07zM73.43 6.16h3.13v15.08h-3.13zM86.16 18.74c-1.25 0-2.19-.47-2.19-1.88V9h4.12l-1.15-2.84H84V3a.8.8 0 0 0-.78-.78h-2.38v3.94h-2.72V9h2.71v8.51c0 1.83 1.15 4.07 4.8 4.07a8.93 8.93 0 0 0 3.76-.78c-.16-.47-.83-2-1-2.45a6.13 6.13 0 0 1-2.23.39zM51.51 11.64c0-2.56 1.93-3 3.44-3a12.78 12.78 0 0 1 1.41.1 12.22 12.22 0 0 1 .26-1.57c.1-.42.21-.78.31-1.15a9.87 9.87 0 0 0-2.24-.21c-3.76 0-6.31 1.67-6.31 5.84v9.6h3.13v-9.6zM100.15 6.16l-4.28 10.59-4.18-10.59h-3.18l5.79 14.35-2.51 5.9h2.66a.7.7 0 0 0 .68-.42l8.19-19.83zM67.06 21.55a14.74 14.74 0 0 0 4.85-1v-3.12a11.74 11.74 0 0 1-4.8 1.1c-1.1 0-6-.47-6-7.78s4.85-7.88 6-7.88a9.62 9.62 0 0 1 3.71.78c.1-.31 1.1-2.82 1.1-2.82A17.06 17.06 0 0 0 67.11 0c-1.77 0-9.5.83-9.5 10.8s7.47 10.75 9.45 10.75zM73.43 1.36h3.13v3.18h-3.13zM7.41 9.19c-2.66-.68-4-1.25-4-3 0-1.41.63-3.08 3.91-3.08a11.57 11.57 0 0 1 4.59 1c.2-.46 1.09-2.86 1.09-2.86A12.92 12.92 0 0 0 7.2 0C3.13 0 .05 2.19.05 6.26s2.87 5.11 6.37 5.9c2.82.63 4 1.3 4 3.13s-.73 3.24-4.49 3.24A12.47 12.47 0 0 1 0 17.12v3.13a11.93 11.93 0 0 0 5.79 1.36c5.95 0 8-3.18 8-6.37-.01-4.18-2.88-5.32-6.38-6.05z"/></g></svg>