<svg data-name="Layer 1" xmlns="http://www.w3.org/2000/svg" viewBox="0 0 114.77 15.7"><title>tesla</title><path fill-rule="evenodd" d="M98.44 6.13l15.94.02v9.49h-2.83V9.3h-10.28v6.34h-2.83V6.13M53.42 3.1h10.1A4.29 4.29 0 0 0 66.47 0H50.59v9.29h13.14v3.25H53.56a4.53 4.53 0 0 0-2.92 3l-.05.12h16V6.21H53.42V3.1zM87.66 15.58a4.3 4.3 0 0 0 2.48-3.08H77.5L77.52 0h-2.83v15.54h13zM100.91 3.14h10.93A4.51 4.51 0 0 0 114.77 0H97.89a4.63 4.63 0 0 0 3 3.09zM28.46 3.2h10.95a4.66 4.66 0 0 0 3-3.14H25.49a4.66 4.66 0 0 0 3 3.14zM28.46 15.68h10.95a4.66 4.66 0 0 0 3-3.15H25.49a4.66 4.66 0 0 0 3 3.15zM0 0a4.68 4.68 0 0 0 3 3.15h4.6l.23.11V15.7h2.88V3.26l.26-.11h4.61A4.7 4.7 0 0 0 18.5 0H0zM28.46 9.3h10.95a4.65 4.65 0 0 0 3-3.14H25.49a4.66 4.66 0 0 0 3 3.14z"/></svg>