<svg id="Layer_1" data-name="Layer 1" xmlns="http://www.w3.org/2000/svg" viewBox="0 0 122.29 31.84"><title>uk</title><g opacity="0.4"><path d="M9.18,14.14H7.49V5h1.7V2.69h-8V5H2.89v9.18l2.3,2.26h4ZM14.9,16.4h4l2.3-2.26V5H23V2.69H14.9V5h1.73v9.18H14.9Z" fill="#fff"/><path d="M23.09,18.56l5-5h2.26v-2.3H21.79v2.3h.86L19.23,17H14.34V13.54h1.73v-2.3h-8v2.3H9.78V23.85H8.05v2.33h8V23.85H14.34V20.43h4.89l3.43,3.43h-.86v2.33h8.58V23.85h-2Z" fill="#fff"/><path d="M28.94,22.72l-4.16-4.16,3.86-3.86h2.86V10.11H22.32v-4h1.73V1.56H13.74V6.15h1.73v4H8.58v-4h1.73V1.56H0V6.15H1.73v8.58L4.59,17.6h4v5.12H6.89v4.59H17.2V22.72H15.47V21.56h3.16l2,2v3.73H31.51V22.72Zm2,4H21.23V23.32L18.93,21h-4v2.3h1.73v3.39H7.45V23.32H9.18V17H4.89L2.33,14.47V5.56H.6V2.13H9.78V5.56H8.05v5.16h8V5.56H14.34V2.13h9.15V5.56H21.76v5.16h9.18v3.43H28.38L24,18.56l4.72,4.72H31Z" fill="#fff"/><path d="M41.59,1.73v-.2h2.36v.2l-1,.33V6.85A2.41,2.41,0,0,1,42.75,8a2.77,2.77,0,0,1-.63.86,3.08,3.08,0,0,1-1,.57,3.48,3.48,0,0,1-1.2.2,3.69,3.69,0,0,1-2.3-.67,2.41,2.41,0,0,1-.83-2V2L35.6,1.73v-.2h3.69v.2L38.06,2V6.62a3.54,3.54,0,0,0,.13,1.1,1.67,1.67,0,0,0,1.23,1.13A4.89,4.89,0,0,0,40.49,9a1.93,1.93,0,0,0,.93-.2,1.91,1.91,0,0,0,1-1.3,4.19,4.19,0,0,0,.13-.93V2.06l-1-.33ZM49.7,9l.8.23v.17H47.87V9.22L48.64,9V5.89a1.74,1.74,0,0,0-.27-1,1,1,0,0,0-.9-.33,2.21,2.21,0,0,0-.7.1,3.77,3.77,0,0,0-.67.3V9l.77.23v.17H44.28V9.25l.8-.23V4.69l-.8-.53V4.09L46,3.66l0,0,0,1,0,0a3.12,3.12,0,0,1,2.1-1,1.46,1.46,0,0,1,.7.13,1.34,1.34,0,0,1,.47.37,1.6,1.6,0,0,1,.27.53,2,2,0,0,1,.07.63V9Z" fill="#fff"/><path d="M51.13,4.19v-.1l1.8-.43,0,0V9l.83.23v.17H51.07V9.22L51.93,9V4.69ZM52,1.33a.62.62,0,0,1,.53-.23.6.6,0,0,1,.47.2.66.66,0,0,1,.2.47.82.82,0,0,1-.2.53.62.62,0,0,1-.53.23.6.6,0,0,1-.47-.2.68.68,0,0,1-.2-.5A.52.52,0,0,1,52,1.33Zm5.59,6.75h0l.63-1.6L59,4.36,58.22,4V3.83h2.16V4l-.9.37-2.1,5.12h-.3l-2.2-5.22L54.13,4V3.83H57V4l-.86.27Z" fill="#fff"/><path d="M61.28,6a6,6,0,0,0,.1,1.13,2.93,2.93,0,0,0,.33.86,1.63,1.63,0,0,0,.6.57,1.8,1.8,0,0,0,.9.2,3.63,3.63,0,0,0,.86-.1A4.86,4.86,0,0,0,65,8.32l.07.13a6.81,6.81,0,0,1-1.1.83,2.27,2.27,0,0,1-1.13.27,2.93,2.93,0,0,1-1.1-.2,2.53,2.53,0,0,1-.86-.6,3.15,3.15,0,0,1-.57-.9,3.29,3.29,0,0,1-.2-1.16,3.48,3.48,0,0,1,.2-1.2,3.08,3.08,0,0,1,.57-1,2.33,2.33,0,0,1,.86-.63,2.91,2.91,0,0,1,1.06-.23,3.14,3.14,0,0,1,1,.17,2.37,2.37,0,0,1,.73.5,1.92,1.92,0,0,1,.43.77,2.94,2.94,0,0,1,.13,1H61.28ZM64,5.69a3,3,0,0,0-.33-1.26.93.93,0,0,0-.86-.5,1.18,1.18,0,0,0-.57.13,1.62,1.62,0,0,0-.47.37,3.16,3.16,0,0,0-.33.57,2.59,2.59,0,0,0-.17.77Zm5.59-.86a.56.56,0,0,1-.47.2.7.7,0,0,1-.43-.17.78.78,0,0,1-.23-.47,1.13,1.13,0,0,0-.67.27,1.28,1.28,0,0,0-.43.53V9l.86.23v.17H65.54V9.22l.8-.23V4.69l-.8-.53V4.09l1.73-.43,0,0,0,1.2,0,0A2.61,2.61,0,0,1,68,4a1.42,1.42,0,0,1,.86-.33.9.9,0,0,1,.63.2.68.68,0,0,1,.2.5.4.4,0,0,1-.13.47Zm4.32,3.63a1.88,1.88,0,0,1-1.13,1,2.3,2.3,0,0,1-.83.13,7,7,0,0,1-.86-.07,3,3,0,0,1-.83-.27V7.65l.27,0a2.88,2.88,0,0,0,.73,1.23,1.23,1.23,0,0,0,.93.37A1.06,1.06,0,0,0,73,8.95a1,1,0,0,0,.3-.77.92.92,0,0,0-.1-.43.94.94,0,0,0-.3-.33,1.79,1.79,0,0,0-.43-.23l-.5-.2a4.33,4.33,0,0,1-.57-.27,2.61,2.61,0,0,1-.5-.33A2.29,2.29,0,0,1,70.5,6a1.19,1.19,0,0,1-.13-.63,1.74,1.74,0,0,1,.13-.7,1.32,1.32,0,0,1,.4-.53,1.81,1.81,0,0,1,.6-.37,2,2,0,0,1,.8-.13,6.5,6.5,0,0,1,.77.07,2.4,2.4,0,0,1,.67.17l0,1.4-.23.07a3.11,3.11,0,0,0-.73-1.06A1.22,1.22,0,0,0,72,3.89a.91.91,0,0,0-.67.23.8.8,0,0,0-.27.63.67.67,0,0,0,.13.43,1.43,1.43,0,0,0,.3.33,1.79,1.79,0,0,0,.43.23,3.36,3.36,0,0,1,.5.23,4.33,4.33,0,0,1,.57.27,1.86,1.86,0,0,1,.5.33,1.75,1.75,0,0,1,.37.47,1.27,1.27,0,0,1,.13.63,1,1,0,0,1-.1.77Zm1-4.26v-.1l1.8-.43,0,0V9l.83.23v.17H74.89V9.22L75.75,9V4.69Zm.86-2.86a.62.62,0,0,1,.53-.23.6.6,0,0,1,.47.2.66.66,0,0,1,.2.47.82.82,0,0,1-.2.53.66.66,0,0,1-.53.23.6.6,0,0,1-.47-.2.68.68,0,0,1-.2-.5A.52.52,0,0,1,75.82,1.33Zm5,8a2.83,2.83,0,0,1-.86.17,1.24,1.24,0,0,1-1-.3,1.52,1.52,0,0,1-.27-1V4.39h-.86V4.23l1-.63.73-1.13h.2v1.4h1.86v.53H79.71V7.75a2.37,2.37,0,0,0,0,.53.63.63,0,0,0,.23.37,1.94,1.94,0,0,0,.9.13h.33a1.49,1.49,0,0,0,.37,0v.13a2.56,2.56,0,0,1-.8.4Zm3.83,1.16q-.6,1.5-1.6,1.5a.74.74,0,0,1-.63-.23.66.66,0,0,1-.2-.47.59.59,0,0,1,.2-.43.7.7,0,0,1,.43-.17.72.72,0,0,1,.47.17,1.7,1.7,0,0,1,.4.43,3,3,0,0,0,.63-1l.37-.8L82.54,4.26,81.77,4V3.83h2.79V4l-.86.27,1.43,3.83h.07l1.33-3.73L85.77,4V3.83h2.1V4L87,4.36,84.6,10.45ZM95,7.65a3.08,3.08,0,0,1-.57,1,2.78,2.78,0,0,1-.93.67,2.91,2.91,0,0,1-1.23.27,2.85,2.85,0,0,1-1.2-.23,2.77,2.77,0,0,1-.86-.63,3,3,0,0,1-.53-1,3.48,3.48,0,0,1-.17-1.2,3.43,3.43,0,0,1,.2-1.16,3.08,3.08,0,0,1,.57-1,3.16,3.16,0,0,1,.93-.67,2.9,2.9,0,0,1,1.23-.23,2.66,2.66,0,0,1,1.2.23,2.77,2.77,0,0,1,.86.63,2.69,2.69,0,0,1,.53,1,3.48,3.48,0,0,1,.17,1.2A3.38,3.38,0,0,1,95,7.65ZM93.52,4.46a1.41,1.41,0,0,0-1.2-.67,1.3,1.3,0,0,0-1.1.7,3.91,3.91,0,0,0-.47,2.1,4.25,4.25,0,0,0,.13,1.2,2.41,2.41,0,0,0,.37.83,1.5,1.5,0,0,0,.53.5,1.38,1.38,0,0,0,.63.17,1.3,1.3,0,0,0,1.13-.67A3.94,3.94,0,0,0,94,6.52,3.22,3.22,0,0,0,93.52,4.46Zm4.23-.17V9l1,.23v.17H95.85V9.22L96.68,9V4.29H95.55v-.2l1.13-.33v-.6a3.41,3.41,0,0,1,.27-1.53,2.44,2.44,0,0,1,.73-1A2.34,2.34,0,0,1,99.24,0a1.24,1.24,0,0,1,.77.2.63.63,0,0,1,.27.5.66.66,0,0,1-.17.47.54.54,0,0,1-.47.17,1,1,0,0,1-.57-.2,2.66,2.66,0,0,1-.57-.7,1.42,1.42,0,0,0-.6.77,4.17,4.17,0,0,0-.2,1.46v1.1h1.56v.5H97.74Z" fill="#fff"/><path d="M48.6,26.32l1.83.63v.37H44.58v-.37L46,26.42l-4.39-5.82H40.39v6l2.16.4v.37H36.1v-.37l2.13-.4V14.31l-2.13-.4v-.37h6.45v.37l-2.16.4v5.59h1.46l4.79-5.29L45,13.94v-.37H49.7v.37l-1.93.77L43.18,19.5l5.42,6.82Zm3.89-4.82a8.9,8.9,0,0,0,.2,2A4.9,4.9,0,0,0,53.3,25a2.79,2.79,0,0,0,1.06,1,3.29,3.29,0,0,0,1.56.37,5.85,5.85,0,0,0,1.53-.2,10.15,10.15,0,0,0,1.66-.67l.13.27a9.08,9.08,0,0,1-2,1.46,4.23,4.23,0,0,1-2,.5,4.94,4.94,0,0,1-1.9-.37,4.64,4.64,0,0,1-1.5-1,4.35,4.35,0,0,1-1-1.6,5.84,5.84,0,0,1-.33-2.06,6.36,6.36,0,0,1,.37-2.13,5.53,5.53,0,0,1,1-1.7A4.7,4.7,0,0,1,53.5,17.7a4.4,4.4,0,0,1,1.9-.4,4.9,4.9,0,0,1,1.76.3,3.42,3.42,0,0,1,1.26.86,3.77,3.77,0,0,1,.77,1.33,5.29,5.29,0,0,1,.23,1.66H52.5Zm4.76-.63a5.07,5.07,0,0,0-.6-2.23,1.64,1.64,0,0,0-1.5-.86,2,2,0,0,0-1,.23,2.51,2.51,0,0,0-.8.67,4.42,4.42,0,0,0-.6,1A4.11,4.11,0,0,0,52.53,21l4.72-.17Z" fill="#fff"/><path d="M70.46,26.65l1.43.4v.27H67.27V27l1.36-.4V21.23a3,3,0,0,0-.47-1.83,1.85,1.85,0,0,0-1.56-.6,4.51,4.51,0,0,0-2.43.7v7.19l1.33.4v.27H60.91V27l1.43-.4V19.13l-1.4-.9V18l3-.77.1.07,0,1.73.1,0a5.7,5.7,0,0,1,3.73-1.83,3,3,0,0,1,1.26.23,2.72,2.72,0,0,1,.83.67,2.89,2.89,0,0,1,.47,1,4.22,4.22,0,0,1,.13,1.13v6.39Zm6.72.57a4.24,4.24,0,0,1-1.53.27A2,2,0,0,1,74,26.91a2.7,2.7,0,0,1-.43-1.73V18.6h-1.5v-.27l1.7-1.13,1.26-2h.37v2.43h3.29v.93H75.39v5.89a3.9,3.9,0,0,0,.1,1,1,1,0,0,0,.43.63,3.53,3.53,0,0,0,1.6.27h.57c.2,0,.43,0,.67,0l0,.23c-.57.23-1.06.47-1.6.67Z" fill="#fff"/><path d="M90.19,26.68v.23l-3,.77-.1,0,0-1.7-.1,0a5.7,5.7,0,0,1-3.69,1.83,2.4,2.4,0,0,1-2.06-.9,2.89,2.89,0,0,1-.47-1,4.22,4.22,0,0,1-.13-1.13V19.1l-1.4-.77v-.2l3.13-.77.1.07v6.29a3.13,3.13,0,0,0,.47,1.86,1.85,1.85,0,0,0,1.56.6A4.59,4.59,0,0,0,85.73,26a6,6,0,0,0,1.2-.53V19l-1.43-.77V18l3.16-.77.1.07v8.78Zm9-6.52a1.13,1.13,0,0,1-.83.37,1.05,1.05,0,0,1-.9-.4,1.31,1.31,0,0,1-.33-.9,1.74,1.74,0,0,1,.13-.7,2.31,2.31,0,0,1,.33-.57,3.71,3.71,0,0,0-.9-.1,3.62,3.62,0,0,0-1.33.23,3.25,3.25,0,0,0-1.13.77,3.61,3.61,0,0,0-.8,1.36,5.73,5.73,0,0,0-.3,2,5,5,0,0,0,.23,1.6,4,4,0,0,0,.67,1.3,3,3,0,0,0,1.06.86,3.49,3.49,0,0,0,1.46.3,5.67,5.67,0,0,0,1.53-.2,7,7,0,0,0,1.5-.6l.1.27A6.32,6.32,0,0,1,98,27.08a4.5,4.5,0,0,1-2,.53A5.24,5.24,0,0,1,94,27.25a3.67,3.67,0,0,1-1.5-1,4.35,4.35,0,0,1-1-1.6,5.84,5.84,0,0,1-.33-2.06,5.35,5.35,0,0,1,.4-2.1,5,5,0,0,1,1.1-1.7,4.77,4.77,0,0,1,1.66-1.13,5.64,5.64,0,0,1,2.13-.4,3.78,3.78,0,0,1,2.16.57,1.64,1.64,0,0,1,.8,1.4.9.9,0,0,1-.2,1Zm10.88,6.42,1.2.47v.27h-4.23V27l.86-.47-2.83-4h-.86v4.06l1.2.4v.27H100.9V27l1.53-.4V13.27l-1.56-.93v-.2l3.29-.83.1,0V22h1l2.83-3.36-1.13-.77v-.2h4v.27l-1.46.57-3.13,3.16,3.79,5Zm6.49,2.63c-.7,1.76-1.66,2.63-2.83,2.63a1.39,1.39,0,0,1-1.1-.4,1.21,1.21,0,0,1-.33-.83.9.9,0,0,1,.33-.73,1.05,1.05,0,0,1,.77-.3,1.38,1.38,0,0,1,.83.27,3.57,3.57,0,0,1,.67.73,5.2,5.2,0,0,0,1.13-1.7l.63-1.43-3.76-9.15-1.33-.47v-.27h4.92v.27L115,18.3,117.54,25h.1L120,18.46l-1.36-.63v-.27h3.69v.27l-1.46.67-4.23,10.71Z" fill="#fff"/></g></svg>