<svg data-name="Layer 1" xmlns="http://www.w3.org/2000/svg" viewBox="0 0 122.29 31.84"><title>uk</title><g opacity=".4" fill="#fff"><path d="M9.18 14.14H7.49V5h1.7V2.69h-8V5h1.7v9.18l2.3 2.26h4zm5.72 2.26h4l2.3-2.26V5H23V2.69h-8.1V5h1.73v9.18H14.9z"/><path d="M23.09 18.56l5-5h2.26v-2.3h-8.56v2.3h.86L19.23 17h-4.89v-3.46h1.73v-2.3h-8v2.3h1.71v10.31H8.05v2.33h8v-2.33h-1.71v-3.42h4.89l3.43 3.43h-.86v2.33h8.58v-2.34h-2z"/><path d="M28.94 22.72l-4.16-4.16 3.86-3.86h2.86v-4.59h-9.18v-4h1.73V1.56H13.74v4.59h1.73v4H8.58v-4h1.73V1.56H0v4.59h1.73v8.58l2.86 2.87h4v5.12h-1.7v4.59H17.2v-4.59h-1.73v-1.16h3.16l2 2v3.73h10.88v-4.57zm2 4h-9.71v-3.4L18.93 21h-4v2.3h1.73v3.39H7.45v-3.37h1.73V17H4.89l-2.56-2.53V5.56H.6V2.13h9.18v3.43H8.05v5.16h8V5.56h-1.71V2.13h9.15v3.43h-1.73v5.16h9.18v3.43h-2.56L24 18.56l4.72 4.72H31zM41.59 1.73v-.2h2.36v.2l-1 .33v4.79a2.41 2.41 0 0 1-.2 1.15 2.77 2.77 0 0 1-.63.86 3.08 3.08 0 0 1-1 .57 3.48 3.48 0 0 1-1.2.2 3.69 3.69 0 0 1-2.3-.67 2.41 2.41 0 0 1-.83-2V2l-1.19-.27v-.2h3.69v.2L38.06 2v4.62a3.54 3.54 0 0 0 .13 1.1 1.67 1.67 0 0 0 1.23 1.13 4.89 4.89 0 0 0 1.07.15 1.93 1.93 0 0 0 .93-.2 1.91 1.91 0 0 0 1-1.3 4.19 4.19 0 0 0 .13-.93V2.06l-1-.33zM49.7 9l.8.23v.17h-2.63v-.18l.77-.22V5.89a1.74 1.74 0 0 0-.27-1 1 1 0 0 0-.9-.33 2.21 2.21 0 0 0-.7.1 3.77 3.77 0 0 0-.67.3V9l.77.23v.17h-2.59v-.15l.8-.23V4.69l-.8-.53v-.07L46 3.66v1a3.12 3.12 0 0 1 2.1-1 1.46 1.46 0 0 1 .7.13 1.34 1.34 0 0 1 .47.37 1.6 1.6 0 0 1 .27.53 2 2 0 0 1 .07.63V9zM51.13 4.19v-.1l1.8-.43V9l.83.23v.17h-2.69v-.18l.86-.22V4.69zM52 1.33a.62.62 0 0 1 .53-.23.6.6 0 0 1 .47.2.66.66 0 0 1 .2.47.82.82 0 0 1-.2.53.62.62 0 0 1-.53.23.6.6 0 0 1-.47-.2.68.68 0 0 1-.2-.5.52.52 0 0 1 .2-.5zm5.59 6.75l.63-1.6.78-2.12-.78-.36v-.17h2.16V4l-.9.37-2.1 5.12h-.3l-2.2-5.22-.75-.27v-.17H57V4l-.86.27zM61.28 6a6 6 0 0 0 .1 1.13 2.93 2.93 0 0 0 .33.86 1.63 1.63 0 0 0 .6.57 1.8 1.8 0 0 0 .9.2 3.63 3.63 0 0 0 .86-.1 4.86 4.86 0 0 0 .93-.34l.07.13a6.81 6.81 0 0 1-1.1.83 2.27 2.27 0 0 1-1.13.27 2.93 2.93 0 0 1-1.1-.2 2.53 2.53 0 0 1-.86-.6 3.15 3.15 0 0 1-.57-.9 3.29 3.29 0 0 1-.2-1.16 3.48 3.48 0 0 1 .2-1.2 3.08 3.08 0 0 1 .57-1 2.33 2.33 0 0 1 .86-.63 2.91 2.91 0 0 1 1.06-.23 3.14 3.14 0 0 1 1 .17 2.37 2.37 0 0 1 .73.5 1.92 1.92 0 0 1 .43.77 2.94 2.94 0 0 1 .13 1h-3.81zM64 5.69a3 3 0 0 0-.33-1.26.93.93 0 0 0-.86-.5 1.18 1.18 0 0 0-.57.13 1.62 1.62 0 0 0-.47.37 3.16 3.16 0 0 0-.33.57 2.59 2.59 0 0 0-.17.77zm5.59-.86a.56.56 0 0 1-.47.2.7.7 0 0 1-.43-.17.78.78 0 0 1-.23-.47 1.13 1.13 0 0 0-.67.27 1.28 1.28 0 0 0-.43.53V9l.86.23v.17h-2.68v-.18l.8-.23v-4.3l-.8-.53v-.07l1.73-.43v1.2A2.61 2.61 0 0 1 68 4a1.42 1.42 0 0 1 .86-.33.9.9 0 0 1 .63.2.68.68 0 0 1 .2.5.4.4 0 0 1-.13.47zm4.32 3.63a1.88 1.88 0 0 1-1.13 1 2.3 2.3 0 0 1-.83.13 7 7 0 0 1-.86-.07 3 3 0 0 1-.83-.27v-1.6h.27a2.88 2.88 0 0 0 .73 1.23 1.23 1.23 0 0 0 .93.37 1.06 1.06 0 0 0 .81-.3 1 1 0 0 0 .3-.77.92.92 0 0 0-.1-.43.94.94 0 0 0-.3-.33 1.79 1.79 0 0 0-.43-.23l-.5-.2a4.33 4.33 0 0 1-.57-.27 2.61 2.61 0 0 1-.5-.33 2.29 2.29 0 0 1-.4-.39 1.19 1.19 0 0 1-.13-.63 1.74 1.74 0 0 1 .13-.7 1.32 1.32 0 0 1 .4-.53 1.81 1.81 0 0 1 .6-.37 2 2 0 0 1 .8-.13 6.5 6.5 0 0 1 .77.07 2.4 2.4 0 0 1 .67.17v1.4l-.23.07a3.11 3.11 0 0 0-.73-1.06 1.22 1.22 0 0 0-.78-.4.91.91 0 0 0-.67.23.8.8 0 0 0-.27.63.67.67 0 0 0 .13.43 1.43 1.43 0 0 0 .3.33 1.79 1.79 0 0 0 .43.23 3.36 3.36 0 0 1 .5.23 4.33 4.33 0 0 1 .57.27 1.86 1.86 0 0 1 .5.33 1.75 1.75 0 0 1 .37.47 1.27 1.27 0 0 1 .13.63 1 1 0 0 1-.1.77zm1-4.26v-.1l1.8-.43V9l.83.23v.17h-2.65v-.18l.86-.22V4.69zm.86-2.86a.62.62 0 0 1 .53-.23.6.6 0 0 1 .47.2.66.66 0 0 1 .2.47.82.82 0 0 1-.2.53.66.66 0 0 1-.53.23.6.6 0 0 1-.47-.2.68.68 0 0 1-.2-.5.52.52 0 0 1 .25-.51zm5 8a2.83 2.83 0 0 1-.86.17 1.24 1.24 0 0 1-1-.3 1.52 1.52 0 0 1-.27-1V4.39h-.86v-.16l1-.63.73-1.13h.2v1.4h1.86v.53h-1.86v3.35a2.37 2.37 0 0 0 0 .53.63.63 0 0 0 .23.37 1.94 1.94 0 0 0 .9.13h.33a1.49 1.49 0 0 0 .37 0v.13a2.56 2.56 0 0 1-.8.4zm3.83 1.16Q84 12 83 12a.74.74 0 0 1-.63-.23.66.66 0 0 1-.2-.47.59.59 0 0 1 .2-.43.7.7 0 0 1 .43-.17.72.72 0 0 1 .47.17 1.7 1.7 0 0 1 .4.43 3 3 0 0 0 .63-1l.37-.8-2.13-5.24-.77-.26v-.17h2.79V4l-.86.27 1.43 3.83h.07l1.33-3.73-.76-.37v-.17h2.1V4l-.87.36-2.4 6.09zM95 7.65a3.08 3.08 0 0 1-.57 1 2.78 2.78 0 0 1-.93.67 2.91 2.91 0 0 1-1.23.27 2.85 2.85 0 0 1-1.2-.23 2.77 2.77 0 0 1-.86-.63 3 3 0 0 1-.53-1 3.48 3.48 0 0 1-.17-1.2 3.43 3.43 0 0 1 .2-1.16 3.08 3.08 0 0 1 .57-1 3.16 3.16 0 0 1 .93-.67 2.9 2.9 0 0 1 1.23-.23 2.66 2.66 0 0 1 1.2.23 2.77 2.77 0 0 1 .86.63 2.69 2.69 0 0 1 .53 1 3.48 3.48 0 0 1 .17 1.2 3.38 3.38 0 0 1-.2 1.12zm-1.48-3.19a1.41 1.41 0 0 0-1.2-.67 1.3 1.3 0 0 0-1.1.7 3.91 3.91 0 0 0-.47 2.1 4.25 4.25 0 0 0 .13 1.2 2.41 2.41 0 0 0 .37.83 1.5 1.5 0 0 0 .53.5 1.38 1.38 0 0 0 .63.17 1.3 1.3 0 0 0 1.13-.67 3.94 3.94 0 0 0 .46-2.1 3.22 3.22 0 0 0-.48-2.06zm4.23-.17V9l1 .23v.17h-2.9v-.18l.83-.22V4.29h-1.13v-.2l1.13-.33v-.6a3.41 3.41 0 0 1 .27-1.53 2.44 2.44 0 0 1 .73-1A2.34 2.34 0 0 1 99.24 0a1.24 1.24 0 0 1 .77.2.63.63 0 0 1 .27.5.66.66 0 0 1-.17.47.54.54 0 0 1-.47.17 1 1 0 0 1-.57-.2 2.66 2.66 0 0 1-.57-.7 1.42 1.42 0 0 0-.6.77 4.17 4.17 0 0 0-.2 1.46v1.1h1.56v.5h-1.52zM48.6 26.32l1.83.63v.37h-5.85v-.37l1.42-.53-4.39-5.82h-1.22v6l2.16.4v.37H36.1V27l2.13-.4V14.31l-2.13-.4v-.37h6.45v.37l-2.16.4v5.59h1.46l4.79-5.29-1.64-.67v-.37h4.7v.37l-1.93.77-4.59 4.79 5.42 6.82zm3.89-4.82a8.9 8.9 0 0 0 .2 2 4.9 4.9 0 0 0 .61 1.5 2.79 2.79 0 0 0 1.06 1 3.29 3.29 0 0 0 1.56.37 5.85 5.85 0 0 0 1.53-.2 10.15 10.15 0 0 0 1.66-.67l.13.27a9.08 9.08 0 0 1-2 1.46 4.23 4.23 0 0 1-2 .5 4.94 4.94 0 0 1-1.9-.37 4.64 4.64 0 0 1-1.5-1 4.35 4.35 0 0 1-1-1.6 5.84 5.84 0 0 1-.33-2.06 6.36 6.36 0 0 1 .37-2.13 5.53 5.53 0 0 1 1-1.7 4.7 4.7 0 0 1 1.62-1.17 4.4 4.4 0 0 1 1.9-.4 4.9 4.9 0 0 1 1.76.3 3.42 3.42 0 0 1 1.26.86 3.77 3.77 0 0 1 .77 1.33 5.29 5.29 0 0 1 .23 1.66H52.5zm4.76-.63a5.07 5.07 0 0 0-.6-2.23 1.64 1.64 0 0 0-1.5-.86 2 2 0 0 0-1 .23 2.51 2.51 0 0 0-.8.67 4.42 4.42 0 0 0-.6 1 4.11 4.11 0 0 0-.22 1.32l4.72-.17zM70.46 26.65l1.43.4v.27h-4.62V27l1.36-.4v-5.37a3 3 0 0 0-.47-1.83 1.85 1.85 0 0 0-1.56-.6 4.51 4.51 0 0 0-2.43.7v7.19l1.33.4v.27h-4.59V27l1.43-.4v-7.47l-1.4-.9V18l3-.77.1.07v1.73h.1a5.7 5.7 0 0 1 3.73-1.83 3 3 0 0 1 1.26.23 2.72 2.72 0 0 1 .83.67 2.89 2.89 0 0 1 .47 1 4.22 4.22 0 0 1 .13 1.13v6.39zm6.72.57a4.24 4.24 0 0 1-1.53.27 2 2 0 0 1-1.65-.58 2.7 2.7 0 0 1-.43-1.73V18.6h-1.5v-.27l1.7-1.13 1.26-2h.37v2.43h3.29v.93h-3.3v5.89a3.9 3.9 0 0 0 .1 1 1 1 0 0 0 .43.63 3.53 3.53 0 0 0 1.6.27h1.24v.23c-.57.23-1.06.47-1.6.67zM90.19 26.68v.23l-3 .77h-.1v-1.7h-.1a5.7 5.7 0 0 1-3.69 1.83 2.4 2.4 0 0 1-2.06-.9 2.89 2.89 0 0 1-.47-1 4.22 4.22 0 0 1-.13-1.13V19.1l-1.4-.77v-.2l3.13-.77.1.07v6.29a3.13 3.13 0 0 0 .47 1.86 1.85 1.85 0 0 0 1.56.6 4.59 4.59 0 0 0 1.23-.18 6 6 0 0 0 1.2-.53V19l-1.43-.77V18l3.16-.77.1.07v8.78zm9-6.52a1.13 1.13 0 0 1-.83.37 1.05 1.05 0 0 1-.9-.4 1.31 1.31 0 0 1-.33-.9 1.74 1.74 0 0 1 .13-.7 2.31 2.31 0 0 1 .33-.57 3.71 3.71 0 0 0-.9-.1 3.62 3.62 0 0 0-1.33.23 3.25 3.25 0 0 0-1.13.77 3.61 3.61 0 0 0-.8 1.36 5.73 5.73 0 0 0-.3 2 5 5 0 0 0 .23 1.6 4 4 0 0 0 .67 1.3 3 3 0 0 0 1.06.86 3.49 3.49 0 0 0 1.46.3 5.67 5.67 0 0 0 1.53-.2 7 7 0 0 0 1.5-.6l.1.27A6.32 6.32 0 0 1 98 27.08a4.5 4.5 0 0 1-2 .53 5.24 5.24 0 0 1-2-.36 3.67 3.67 0 0 1-1.5-1 4.35 4.35 0 0 1-1-1.6 5.84 5.84 0 0 1-.33-2.06 5.35 5.35 0 0 1 .4-2.1 5 5 0 0 1 1.1-1.7 4.77 4.77 0 0 1 1.66-1.13 5.64 5.64 0 0 1 2.13-.4 3.78 3.78 0 0 1 2.16.57 1.64 1.64 0 0 1 .8 1.4.9.9 0 0 1-.2 1zm10.88 6.42l1.2.47v.27h-4.23V27l.86-.47-2.83-4h-.86v4.06l1.2.4v.27h-4.51V27l1.53-.4V13.27l-1.56-.93v-.2l3.29-.83h.1V22h1l2.83-3.36-1.13-.77v-.2h4v.27l-1.46.57-3.13 3.16 3.79 5zm6.49 2.63c-.7 1.76-1.66 2.63-2.83 2.63a1.39 1.39 0 0 1-1.1-.4 1.21 1.21 0 0 1-.33-.83.9.9 0 0 1 .33-.73 1.05 1.05 0 0 1 .77-.3 1.38 1.38 0 0 1 .83.27 3.57 3.57 0 0 1 .67.73 5.2 5.2 0 0 0 1.13-1.7l.63-1.43-3.76-9.15-1.33-.47v-.27h4.92v.27l-1.49.47 2.54 6.7h.1l2.36-6.54-1.36-.63v-.27h3.69v.27l-1.46.67-4.23 10.71z"/></g></svg>