<svg xmlns="http://www.w3.org/2000/svg" viewBox="0 0 23 23"><path d="M23 11.5C23 17.8 17.8 23 11.5 23S0 17.8 0 11.5 5.2 0 11.5 0 23 5.2 23 11.5zm-.5 0c0-6-4.9-11-11-11s-11 4.9-11 11c0 6 4.9 11 11 11s11-5 11-11zm-20-4l4.7 12.9c-3.3-1.6-5.6-5-5.6-8.9 0-1.4.3-2.8.9-4zm14.9 6.7l-1 3.3-3.5-10.6s.6 0 1.1-.1c.5-.1.5-.8-.1-.8-1.6.1-2.6.1-2.6.1s-1 0-2.6-.1c-.5 0-.6.8-.1.8.5.1 1 .1 1 .1l1.5 4.2L9 17.6 5.5 6.9s.6 0 1.1-.1c.5-.1.4-.9-.1-.8-1.6.1-2.6.1-2.6.1h-.6C5 3.4 8 1.6 11.5 1.6c2.6 0 4.9 1 6.7 2.6h-.1c-1 0-1.7.8-1.7 1.7 0 .8.5 1.5 1 2.3.4.7.8 1.5.8 2.7 0 .9-.4 1.9-.8 3.3zm-2.7 6.5c0 .1 0 .1.1.1-1 .4-2.1.6-3.3.6-1 0-1.9-.1-2.8-.4l3-8.6 3 8.3zm6.7-9.2c0 3.6-2 6.8-4.9 8.5l3-8.7c.5-1.4.8-2.5.8-3.5 0-.4 0-.7-.1-1 .7 1.4 1.2 3 1.2 4.7z"/></svg>